<svg width="95" height="283" viewBox="0 0 95 283" fill="none" xmlns="http://www.w3.org/2000/svg">
<g opacity="0.1" filter="url(#filter0_f_1_410)">
<path d="M95.218 188.096C97.3035 193.909 97.7562 199.613 96.8707 204.106C95.9786 208.633 93.8036 211.67 90.8631 212.726C87.9225 213.781 84.3125 212.819 80.7461 209.892C77.2057 206.986 73.9289 202.295 71.8435 196.483C69.7581 190.671 69.3053 184.967 70.1909 180.473C71.083 175.947 73.2579 172.909 76.1985 171.854C79.1391 170.799 82.7491 171.761 86.3155 174.688C89.8558 177.593 93.1326 182.284 95.218 188.096Z" fill="white" stroke="black" stroke-width="2.83889"/>
<path fill-rule="evenodd" clip-rule="evenodd" d="M94.0525 206.224C97.4775 204.995 97.7281 196.959 94.6123 188.275C91.4964 179.59 86.194 173.547 82.769 174.776C79.3439 176.004 79.0933 184.041 82.2091 192.725C82.2602 192.867 82.3118 193.009 82.364 193.149L86.2248 192.615L84.258 197.483C87.3274 203.495 91.2973 207.212 94.0525 206.224Z" fill="black"/>
<path d="M112.7 205.303C109.407 205.428 87.8458 206.883 92.0027 219.256C96.9086 233.858 116.573 224.349 116.308 217.697" stroke="black" stroke-width="3.40666" stroke-linecap="round"/>
<mask id="path-4-inside-1_1_410" fill="white">
<path fill-rule="evenodd" clip-rule="evenodd" d="M224.835 153.297C226.1 194.156 200.118 233.467 158.151 248.524C106.471 267.067 50.1204 241.808 32.2882 192.108C14.4559 142.407 41.8949 87.0854 93.575 68.5429C138.988 52.2487 188.009 69.7773 211.329 107.992C227.152 103.247 241.344 104.71 236.965 125.639C231.917 140.871 228.277 148.955 224.835 153.297Z"/>
</mask>
<path fill-rule="evenodd" clip-rule="evenodd" d="M224.835 153.297C226.1 194.156 200.118 233.467 158.151 248.524C106.471 267.067 50.1204 241.808 32.2882 192.108C14.4559 142.407 41.8949 87.0854 93.575 68.5429C138.988 52.2487 188.009 69.7773 211.329 107.992C227.152 103.247 241.344 104.71 236.965 125.639C231.917 140.871 228.277 148.955 224.835 153.297Z" fill="#FFE4E2"/>
<path d="M224.835 153.297L222.165 151.181L221.391 152.158L221.43 153.403L224.835 153.297ZM211.329 107.992L208.421 109.767L209.79 112.01L212.308 111.255L211.329 107.992ZM236.965 125.639L240.199 126.711L240.26 126.526L240.3 126.336L236.965 125.639ZM221.43 153.403C222.648 192.755 197.607 230.748 157.001 245.318L159.302 251.731C202.629 236.185 229.551 195.557 228.24 153.192L221.43 153.403ZM157.001 245.318C106.973 263.267 52.6496 238.77 35.4947 190.957L29.0817 193.258C47.5912 244.846 105.97 270.866 159.302 251.731L157.001 245.318ZM35.4947 190.957C18.3398 143.145 44.6971 89.6993 94.7254 71.7494L92.4245 65.3363C39.0927 84.4715 10.5721 141.67 29.0817 193.258L35.4947 190.957ZM94.7254 71.7494C138.673 55.9812 185.973 72.9811 208.421 109.767L214.237 106.218C190.044 66.5736 139.304 48.5163 92.4245 65.3363L94.7254 71.7494ZM240.3 126.336C241.46 120.789 241.485 116.123 240.276 112.347C239.026 108.438 236.521 105.711 233.196 104.116C229.995 102.58 226.233 102.182 222.428 102.403C218.593 102.627 214.466 103.495 210.35 104.729L212.308 111.255C216.104 110.117 219.684 109.388 222.824 109.205C225.993 109.021 228.472 109.406 230.249 110.259C231.903 111.053 233.114 112.319 233.787 114.423C234.503 116.659 234.659 120.024 233.631 124.941L240.3 126.336ZM227.504 155.414C231.371 150.536 235.167 141.894 240.199 126.711L233.731 124.567C228.667 139.847 225.183 147.374 222.165 151.181L227.504 155.414Z" fill="black" mask="url(#path-4-inside-1_1_410)"/>
<path d="M94.2636 185.435C96.3241 191.178 96.7556 196.819 95.8562 201.267C94.9506 205.746 92.7698 208.765 89.8218 209.823C86.8738 210.88 83.2709 209.936 79.7248 207.055C76.2027 204.193 72.9496 199.565 70.889 193.822C68.8285 188.079 68.397 182.438 69.2964 177.99C70.202 173.512 72.3828 170.492 75.3308 169.435C78.2788 168.377 81.8817 169.321 85.4278 172.202C88.9499 175.064 92.203 179.692 94.2636 185.435Z" fill="white" stroke="black" stroke-width="2.83889"/>
<path fill-rule="evenodd" clip-rule="evenodd" d="M93.0608 203.459C96.4858 202.23 96.7364 194.194 93.6206 185.51C90.5047 176.826 85.2023 170.782 81.7773 172.011C78.3522 173.24 78.1016 181.276 81.2174 189.96C81.2685 190.102 81.3201 190.244 81.3723 190.385L85.2331 189.851L83.2663 194.718C86.3357 200.73 90.3056 204.448 93.0608 203.459Z" fill="black"/>
<path d="M110.646 201.171C107.776 201.28 88.9808 202.548 92.6044 213.334C96.8809 226.063 114.022 217.773 113.791 211.974" stroke="black" stroke-width="3.40666" stroke-linecap="round"/>
</g>
<defs>
<filter id="filter0_f_1_410" x="-4.6" y="0.311255" width="280.2" height="286.387" filterUnits="userSpaceOnUse" color-interpolation-filters="sRGB">
<feFlood flood-opacity="0" result="BackgroundImageFix"/>
<feBlend mode="normal" in="SourceGraphic" in2="BackgroundImageFix" result="shape"/>
<feGaussianBlur stdDeviation="2.3" result="effect1_foregroundBlur_1_410"/>
</filter>
</defs>
</svg>
