<svg width="243" height="248" viewBox="0 0 243 248" fill="none" xmlns="http://www.w3.org/2000/svg">
<g clip-path="url(#clip0_66_1013)">
<path d="M86.4461 170.694C86.4461 176.828 84.9563 182.319 82.6144 186.234C80.257 190.175 77.1787 192.322 74.021 192.322C70.8632 192.322 67.7849 190.175 65.4275 186.234C63.0856 182.319 61.5958 176.828 61.5958 170.694C61.5958 164.561 63.0856 159.07 65.4275 155.155C67.7849 151.213 70.8632 149.067 74.021 149.067C77.1787 149.067 80.257 151.213 82.6144 155.155C84.9563 159.07 86.4461 164.561 86.4461 170.694Z" fill="white" stroke="black" stroke-width="2.54713"/>
<path d="M122.47 170.694C122.47 176.828 120.98 182.319 118.638 186.234C116.28 190.175 113.202 192.322 110.044 192.322C106.887 192.322 103.808 190.175 101.451 186.234C99.109 182.319 97.6193 176.828 97.6193 170.694C97.6193 164.561 99.109 159.07 101.451 155.155C103.808 151.213 106.887 149.067 110.044 149.067C113.202 149.067 116.28 151.213 118.638 155.155C120.98 159.07 122.47 164.561 122.47 170.694Z" fill="white" stroke="black" stroke-width="2.54713"/>
<path fill-rule="evenodd" clip-rule="evenodd" d="M79.1677 187.197C82.7704 187.197 85.6909 179.792 85.6909 170.658C85.6909 161.523 82.7704 154.118 79.1677 154.118C75.5651 154.118 72.6445 161.523 72.6445 170.658C72.6445 170.807 72.6453 170.957 72.6469 171.105L76.423 171.898L72.9629 175.777C73.813 182.406 76.2697 187.197 79.1677 187.197Z" fill="black"/>
<path fill-rule="evenodd" clip-rule="evenodd" d="M115.045 187.197C118.647 187.197 121.568 179.792 121.568 170.658C121.568 161.523 118.647 154.118 115.045 154.118C111.442 154.118 108.521 161.523 108.521 170.658C108.521 170.807 108.522 170.956 108.524 171.104L112.305 171.898L108.841 175.781C109.691 182.408 112.147 187.197 115.045 187.197Z" fill="black"/>
<path d="M96.8543 192.574C93.7438 191.59 73.1644 185.736 72.9012 198.657C72.5905 213.905 94.095 211.618 96.0725 205.33" stroke="black" stroke-width="3.05655" stroke-linecap="round"/>
<path d="M113.845 220.567C113.845 221.9 113.123 223.206 111.757 224.224C110.391 225.242 108.445 225.91 106.24 225.91C104.035 225.91 102.089 225.242 100.723 224.224C99.3569 223.206 98.6349 221.9 98.6349 220.567C98.6349 219.235 99.3569 217.928 100.723 216.911C102.089 215.893 104.035 215.225 106.24 215.225C108.445 215.225 110.391 215.893 111.757 216.911C113.123 217.928 113.845 219.235 113.845 220.567Z" stroke="black" stroke-width="2.54713"/>
<mask id="path-7-inside-1_66_1013" fill="white">
<path fill-rule="evenodd" clip-rule="evenodd" d="M218.739 181.604C206.256 220.103 168.901 248.049 124.758 248.049C70.3976 248.049 26.3301 205.669 26.3301 153.391C26.3301 101.113 70.3976 58.7338 124.758 58.7338C172.526 58.7338 212.347 91.4588 221.302 134.869C237.634 135.736 250.37 141.845 239.292 159.885C229.494 172.392 223.399 178.709 218.739 181.604Z"/>
</mask>
<path fill-rule="evenodd" clip-rule="evenodd" d="M218.739 181.604C206.256 220.103 168.901 248.049 124.758 248.049C70.3976 248.049 26.3301 205.669 26.3301 153.391C26.3301 101.113 70.3976 58.7338 124.758 58.7338C172.526 58.7338 212.347 91.4588 221.302 134.869C237.634 135.736 250.37 141.845 239.292 159.885C229.494 172.392 223.399 178.709 218.739 181.604Z" fill="#FFE4E2"/>
<path d="M218.739 181.604L217.156 179.056L216.224 179.635L215.886 180.679L218.739 181.604ZM221.302 134.869L218.364 135.475L218.831 137.741L221.143 137.864L221.302 134.869ZM239.292 159.885L241.653 161.735L241.759 161.6L241.848 161.455L239.292 159.885ZM215.886 180.679C203.812 217.915 167.627 245.049 124.758 245.049V251.049C170.174 251.049 208.701 222.291 221.593 182.529L215.886 180.679ZM124.758 245.049C71.943 245.049 29.3301 203.903 29.3301 153.391H23.3301C23.3301 207.435 68.8523 251.049 124.758 251.049V245.049ZM29.3301 153.391C29.3301 102.88 71.943 61.7338 124.758 61.7338V55.7338C68.8523 55.7338 23.3301 99.3471 23.3301 153.391H29.3301ZM124.758 61.7338C171.155 61.7338 209.707 93.5089 218.364 135.475L224.24 134.262C214.987 89.4087 173.898 55.7338 124.758 55.7338V61.7338ZM241.848 161.455C244.766 156.703 246.316 152.427 246.449 148.592C246.587 144.635 245.204 141.356 242.711 138.83C240.301 136.389 236.994 134.785 233.408 133.729C229.796 132.666 225.691 132.098 221.461 131.873L221.143 137.864C225.079 138.074 228.69 138.595 231.714 139.485C234.762 140.382 237.009 141.595 238.441 143.045C239.788 144.41 240.533 146.094 240.453 148.383C240.369 150.795 239.356 154.047 236.735 158.315L241.848 161.455ZM220.323 184.152C225.493 180.939 231.883 174.206 241.653 161.735L236.93 158.035C227.105 170.577 221.304 176.478 217.156 179.056L220.323 184.152Z" fill="black" mask="url(#path-7-inside-1_66_1013)"/>
<path d="M86.2196 167.895C86.2196 173.922 84.739 179.305 82.4239 183.132C80.0919 186.988 77.0759 189.042 74.021 189.042C70.966 189.042 67.95 186.988 65.618 183.132C63.3029 179.305 61.8223 173.922 61.8223 167.895C61.8223 161.869 63.3029 156.485 65.618 152.658C67.95 148.803 70.966 146.749 74.021 146.749C77.0759 146.749 80.0919 148.803 82.4239 152.658C84.739 156.485 86.2196 161.869 86.2196 167.895Z" fill="white" stroke="black" stroke-width="3"/>
<path d="M122.243 167.895C122.243 173.922 120.762 179.305 118.447 183.132C116.115 186.988 113.099 189.042 110.044 189.042C106.989 189.042 103.973 186.988 101.641 183.132C99.3263 179.305 97.8457 173.922 97.8457 167.895C97.8457 161.869 99.3263 156.485 101.641 152.658C103.973 148.803 106.989 146.749 110.044 146.749C113.099 146.749 116.115 148.803 118.447 152.658C120.762 156.485 122.243 161.869 122.243 167.895Z" fill="white" stroke="black" stroke-width="3"/>
<path fill-rule="evenodd" clip-rule="evenodd" d="M79.1677 184.289C82.7704 184.289 85.6909 176.884 85.6909 167.75C85.6909 158.615 82.7704 151.21 79.1677 151.21C75.5651 151.21 72.6445 158.615 72.6445 167.75C72.6445 167.899 72.6453 168.049 72.6469 168.197L76.423 168.991L72.9629 172.869C73.813 179.498 76.2697 184.289 79.1677 184.289Z" fill="black"/>
<path fill-rule="evenodd" clip-rule="evenodd" d="M115.045 184.289C118.647 184.289 121.568 176.884 121.568 167.75C121.568 158.615 118.647 151.21 115.045 151.21C111.442 151.21 108.521 158.615 108.521 167.75C108.521 167.899 108.522 168.048 108.524 168.196L112.305 168.991L108.841 172.873C109.691 179.5 112.147 184.289 115.045 184.289Z" fill="black"/>
<path d="M96.322 188.037C93.6106 187.179 75.6714 182.076 75.442 193.339C75.1712 206.631 93.9167 204.637 95.6405 199.156" stroke="black" stroke-width="3" stroke-linecap="round"/>
<path d="M113.619 217.514C113.619 218.759 112.945 220.003 111.622 220.989C110.299 221.975 108.401 222.63 106.24 222.63C104.079 222.63 102.181 221.975 100.858 220.989C99.535 220.003 98.8613 218.759 98.8613 217.514C98.8613 216.269 99.535 215.025 100.858 214.039C102.181 213.053 104.079 212.398 106.24 212.398C108.401 212.398 110.299 213.053 111.622 214.039C112.945 215.025 113.619 216.269 113.619 217.514Z" stroke="black" stroke-width="3"/>
<path fill-rule="evenodd" clip-rule="evenodd" d="M149.878 30.7622C151.112 30.9627 151.288 30.9915 149.892 29.5451C146.034 25.55 135.39 29.5694 126.118 38.5226C121.314 43.1624 117.82 48.2168 116.106 52.566C114.668 50.0008 112.81 47.2841 110.6 44.6046C103.145 35.5642 88.1798 33.0696 84.984 35.705C83.4823 36.9436 87.2227 38.7905 92.3836 41.3388C98.2042 44.2129 105.832 47.979 109.784 52.7707C109.946 52.9673 110.103 53.1626 110.256 53.3567C99.9644 50.6372 86.7726 50.9668 73.256 54.9865C63.3272 57.9392 54.6336 62.4635 47.8905 67.7892C45.4369 67.683 42.0755 69.8429 38.4647 73.6175C37.2064 73.4034 35.9344 73.1819 34.6598 72.958C33.9474 72.833 33.234 72.7072 32.5216 72.5816L32.5055 72.5786C19.0265 70.2013 5.87363 67.8814 5.42441 71.5722C5.04501 74.6897 13.8158 81.3893 24.4459 86.6949L23.6197 86.8622C10.2049 89.5795 -2.88492 92.2309 -1.95303 95.8303C-1.19962 98.7401 8.55429 101.638 19.7647 102.802L18.8907 104.269L18.8871 104.275L18.8856 104.278C11.8773 116.033 5.03915 127.503 8.32968 129.234C10.4576 130.353 16.4527 127.204 23.0658 122.052C26.3114 134.057 37.4225 145.962 40.7428 147.708C42.4271 148.594 41.8751 146.743 40.8553 143.325C39.6119 139.157 37.6727 132.657 38.2462 125.945C42.7679 135.711 50.9708 144.25 53.7428 145.708C55.4271 146.594 54.8751 144.743 53.8553 141.325C52.0904 135.409 48.9239 124.795 53.5296 115.546C58.1029 125.059 66.0277 133.28 68.7428 134.708C70.4271 135.594 69.8751 133.743 68.8553 130.325C67.3089 125.141 64.6869 116.352 67.1585 108.034C70.9928 119.347 81.0992 130.083 84.2389 131.734C85.9232 132.619 85.3712 130.769 84.3514 127.351C82.5599 121.345 79.3246 110.501 84.2389 101.155C86.2557 97.32 87.9151 93.5392 89.1832 90.0031C95.7027 89.045 102.017 90.3754 106.49 91.3179C110.341 92.1295 112.828 92.6535 112.905 91.1807C113.75 92.5731 119.093 91.889 125.896 91.0182C132.785 90.1361 141.171 89.0625 147.897 89.7607C150.313 94.381 153.953 99.6341 158.504 104.809C165.477 112.738 164.881 124.039 164.551 130.297C164.363 133.859 164.261 135.788 165.69 134.531C168.207 132.317 174.863 120.76 176.49 109.457C181.352 117.096 180.846 126.708 180.551 132.297C180.363 135.859 180.261 137.788 181.69 136.531C183.837 134.643 188.996 125.955 191.476 116.426C191.783 116.799 192.095 117.172 192.412 117.546C192.77 117.967 193.134 118.388 193.504 118.809C200.477 126.738 199.881 138.039 199.551 144.297C199.363 147.859 199.261 149.788 200.69 148.531C202.264 147.146 205.458 142.106 208.027 135.759C213.384 143.502 212.855 153.536 212.551 159.297C212.363 162.859 212.261 164.788 213.69 163.531C217.501 160.179 230.801 135.406 221.768 122.528C219.832 100.465 202.837 69.5835 179.883 62.7573C176.015 61.6071 172.173 60.385 168.406 59.187C156.4 55.3684 145.169 51.7961 136.373 51.5877C141.569 50.7763 147.673 51.1488 152.61 51.45C158.355 51.8005 162.519 52.0545 161.83 50.2337C160.365 46.3595 146.137 41.0943 135.176 45.2398C131.981 46.4481 129.064 47.8566 126.57 49.3418C129.431 44.2182 132.698 38.7417 136.33 35.2337C142.245 29.5218 147.703 30.4088 149.878 30.7622Z" fill="black"/>
<rect x="92.3301" y="145.822" width="28.6927" height="9" rx="4.5" transform="rotate(-15.2356 92.3301 145.822)" fill="black"/>
<rect width="28.6927" height="9" rx="4.5" transform="matrix(-0.964854 -0.262788 -0.262788 0.964854 87.3789 147.274)" fill="black"/>
</g>
<defs>
<clipPath id="clip0_66_1013">
<rect width="243" height="248" fill="white"/>
</clipPath>
</defs>
</svg>
