<svg width="121" height="105" viewBox="0 0 121 105" fill="none" xmlns="http://www.w3.org/2000/svg">
<path d="M33.5014 62.0966C33.5014 65.4974 32.6715 68.5418 31.3669 70.7124C30.054 72.897 28.3387 74.0885 26.5773 74.0885C24.8159 74.0885 23.1006 72.897 21.7876 70.7124C20.483 68.5418 19.6531 65.4974 19.6531 62.0966C19.6531 58.6959 20.483 55.6515 21.7876 53.4808C23.1006 51.2963 24.8159 50.1047 26.5773 50.1047C28.3387 50.1047 30.054 51.2963 31.3669 53.4808C32.6715 55.6515 33.5014 58.6959 33.5014 62.0966Z" fill="white" stroke="black" stroke-width="1.41944"/>
<path d="M53.5757 62.0966C53.5757 65.4974 52.7457 68.5418 51.4412 70.7124C50.1282 72.897 48.4129 74.0885 46.6515 74.0885C44.8901 74.0885 43.1748 72.897 41.8618 70.7124C40.5572 68.5418 39.7273 65.4974 39.7273 62.0966C39.7273 58.6959 40.5572 55.6515 41.8618 53.4808C43.1748 51.2963 44.8901 50.1047 46.6515 50.1047C48.4129 50.1047 50.1282 51.2963 51.4412 53.4808C52.7457 55.6515 53.5757 58.6959 53.5757 62.0966Z" fill="white" stroke="black" stroke-width="1.41944"/>
<path fill-rule="evenodd" clip-rule="evenodd" d="M29.4438 71.2501C31.4514 71.2501 33.079 67.143 33.079 62.0767C33.079 57.0104 31.4514 52.9033 29.4438 52.9033C27.4361 52.9033 25.8086 57.0104 25.8086 62.0767C25.8086 62.1597 25.809 62.2424 25.8099 62.3249L27.9145 62.7649L25.9861 64.916C26.4598 68.5926 27.8288 71.2501 29.4438 71.2501Z" fill="black"/>
<path fill-rule="evenodd" clip-rule="evenodd" d="M49.4399 71.2501C51.4475 71.2501 53.0751 67.143 53.0751 62.0767C53.0751 57.0104 51.4475 52.9033 49.4399 52.9033C47.4322 52.9033 45.8047 57.0104 45.8047 62.0767C45.8047 62.1595 45.8051 62.2421 45.806 62.3244L47.9131 62.7649L45.9825 64.9184C46.4565 68.5937 47.8253 71.2501 49.4399 71.2501Z" fill="black"/>
<path d="M39.2999 74.232C37.5665 73.6861 26.0981 70.4395 25.9514 77.6055C25.7783 86.0626 37.7622 84.7942 38.8642 81.3069" stroke="black" stroke-width="1.70333" stroke-linecap="round"/>
<path d="M48.7681 89.758C48.7681 90.4943 48.3672 91.2179 47.6059 91.7825C46.8446 92.3471 45.7594 92.7176 44.5299 92.7176C43.3005 92.7176 42.2153 92.3471 41.454 91.7825C40.6926 91.2179 40.2918 90.4943 40.2918 89.758C40.2918 89.0217 40.6926 88.2981 41.454 87.7334C42.2153 87.1688 43.3005 86.7983 44.5299 86.7983C45.7594 86.7983 46.8446 87.1688 47.6059 87.7334C48.3672 88.2981 48.7681 89.0217 48.7681 89.758Z" stroke="black" stroke-width="1.41944"/>
<mask id="path-7-inside-1_1_1694" fill="white">
<path fill-rule="evenodd" clip-rule="evenodd" d="M107.224 68.1476C100.268 89.5003 79.4507 105 54.851 105C24.5576 105 0 81.4949 0 52.5C0 23.5051 24.5576 0 54.851 0C81.4711 0 103.662 18.1504 108.652 42.2268C117.754 42.7082 124.851 46.0963 118.678 56.1016C113.218 63.0381 109.821 66.5417 107.224 68.1476Z"/>
</mask>
<path fill-rule="evenodd" clip-rule="evenodd" d="M107.224 68.1476C100.268 89.5003 79.4507 105 54.851 105C24.5576 105 0 81.4949 0 52.5C0 23.5051 24.5576 0 54.851 0C81.4711 0 103.662 18.1504 108.652 42.2268C117.754 42.7082 124.851 46.0963 118.678 56.1016C113.218 63.0381 109.821 66.5417 107.224 68.1476Z" fill="#FFE4E2"/>
<path d="M107.224 68.1476L106.328 66.6989L105.798 67.027L105.605 67.62L107.224 68.1476ZM108.652 42.2268L106.984 42.5725L107.251 43.8584L108.562 43.9277L108.652 42.2268ZM118.678 56.1016L120.016 57.1551L120.076 57.0787L120.127 56.996L118.678 56.1016ZM105.605 67.62C98.883 88.2528 78.7331 103.297 54.851 103.297V106.703C80.1683 106.703 101.653 90.7477 108.844 68.6752L105.605 67.62ZM54.851 103.297C25.4273 103.297 1.70333 80.4847 1.70333 52.5H-1.70333C-1.70333 82.5052 23.688 106.703 54.851 106.703V103.297ZM1.70333 52.5C1.70333 24.5153 25.4273 1.70333 54.851 1.70333V-1.70333C23.688 -1.70333 -1.70333 22.4948 -1.70333 52.5H1.70333ZM54.851 1.70333C80.6985 1.70333 102.165 19.3204 106.984 42.5725L110.32 41.8811C105.159 16.9803 82.2437 -1.70333 54.851 -1.70333V1.70333ZM120.127 56.996C121.755 54.3575 122.623 51.9779 122.698 49.8399C122.775 47.6316 121.999 45.8013 120.602 44.3932C119.254 43.0341 117.406 42.1423 115.406 41.5562C113.39 40.9658 111.101 40.6505 108.742 40.5258L108.562 43.9277C110.755 44.0437 112.765 44.3325 114.448 44.8254C116.145 45.3226 117.392 45.9935 118.184 46.7922C118.927 47.5421 119.337 48.4648 119.293 49.7208C119.247 51.0471 118.687 52.843 117.228 55.2071L120.127 56.996ZM108.12 69.5963C111.007 67.8109 114.572 64.072 120.016 57.1551L117.339 55.0481C111.864 62.0043 108.635 65.2725 106.328 66.6989L108.12 69.5963Z" fill="black" mask="url(#path-7-inside-1_1_1694)"/>
<path d="M33.5014 60.5444C33.5014 63.9047 32.6722 66.9128 31.3688 69.0574C30.0576 71.2147 28.3426 72.3951 26.5773 72.3951C24.8119 72.3951 23.0969 71.2147 21.7858 69.0574C20.4823 66.9128 19.6531 63.9047 19.6531 60.5444C19.6531 57.184 20.4823 54.176 21.7858 52.0314C23.0969 49.874 24.8119 48.6936 26.5773 48.6936C28.3426 48.6936 30.0576 49.874 31.3688 52.0314C32.6722 54.176 33.5014 57.184 33.5014 60.5444Z" fill="white" stroke="black" stroke-width="1.41944"/>
<path d="M53.4337 60.5444C53.4337 63.8831 52.6095 66.8647 51.3217 68.9836C50.0246 71.1178 48.3483 72.2532 46.6515 72.2532C44.9547 72.2532 43.2784 71.1178 41.9813 68.9836C40.6935 66.8647 39.8692 63.8831 39.8692 60.5444C39.8692 57.2056 40.6935 54.224 41.9813 52.1051C43.2784 49.9709 44.9547 48.8356 46.6515 48.8356C48.3483 48.8356 50.0246 49.9709 51.3217 52.1051C52.6095 54.224 53.4337 57.2056 53.4337 60.5444Z" fill="white" stroke="black" stroke-width="1.70333"/>
<path fill-rule="evenodd" clip-rule="evenodd" d="M29.4438 69.6371C31.4514 69.6371 33.079 65.53 33.079 60.4637C33.079 55.3973 31.4514 51.2903 29.4438 51.2903C27.4361 51.2903 25.8086 55.3973 25.8086 60.4637C25.8086 60.5467 25.809 60.6294 25.8099 60.7119L27.9145 61.1519L25.9861 63.303C26.4599 66.9796 27.8288 69.6371 29.4438 69.6371Z" fill="black"/>
<path fill-rule="evenodd" clip-rule="evenodd" d="M49.4399 69.6371C51.4475 69.6371 53.0751 65.53 53.0751 60.4637C53.0751 55.3973 51.4475 51.2903 49.4399 51.2903C47.4322 51.2903 45.8047 55.3973 45.8047 60.4637C45.8047 60.5465 45.8051 60.6291 45.806 60.7114L47.9131 61.1519L45.9825 63.3054C46.4565 66.9807 47.8253 69.6371 49.4399 69.6371Z" fill="black"/>
<path d="M39.0046 71.7157C37.4936 71.2398 27.4966 68.4097 27.3688 74.6563C27.2178 82.0285 37.6642 80.9228 38.6248 77.8829" stroke="black" stroke-width="1.70333" stroke-linecap="round"/>
<path d="M33.5 87.5C37.8333 90.8333 47.8 94.5 53 82.5" stroke="black" stroke-width="1.7" stroke-linecap="round"/>
</svg>
