<svg width="118" height="111" viewBox="0 0 118 111" fill="none" xmlns="http://www.w3.org/2000/svg">
<g opacity="0.1" filter="url(#filter0_f_1_416)">
<path d="M67.7056 43.6297C69.1764 47.7289 69.488 51.7329 68.8712 54.8628C68.2478 58.0259 66.7515 60.0363 64.8357 60.7237C62.9198 61.4111 60.4867 60.8105 57.9946 58.7653C55.5286 56.7415 53.2237 53.4527 51.7529 49.3534C50.2821 45.2542 49.9704 41.2502 50.5873 38.1203C51.2107 34.9573 52.707 32.9468 54.6228 32.2595C56.5387 31.5721 58.9718 32.1726 61.4639 34.2178C63.9299 36.2417 66.2348 39.5305 67.7056 43.6297Z" fill="white" stroke="black" stroke-width="2.83889"/>
<path d="M92.1939 34.8434C93.6647 38.9427 93.9763 42.9467 93.3595 46.0766C92.7361 49.2396 91.2398 51.25 89.3239 51.9374C87.4081 52.6248 84.9749 52.0243 82.4829 49.9791C80.0169 47.9552 77.7119 44.6664 76.2412 40.5672C74.7704 36.468 74.4587 32.464 75.0756 29.334C75.6989 26.171 77.1953 24.1606 79.1111 23.4732C81.027 22.7858 83.4601 23.3864 85.9522 25.4316C88.4181 27.4554 90.7231 30.7442 92.1939 34.8434Z" fill="white" stroke="black" stroke-width="2.83889"/>
<path fill-rule="evenodd" clip-rule="evenodd" d="M67.2528 56.4554C69.7019 55.5766 69.8811 49.8303 67.6531 43.6206C65.4251 37.4109 61.6336 33.0893 59.1845 33.968C56.7354 34.8467 56.5562 40.593 58.7842 46.8028C58.8207 46.9045 58.8576 47.0057 58.8949 47.1064L61.6556 46.7245L60.2492 50.205C62.444 54.5041 65.2828 57.1622 67.2528 56.4554Z" fill="black"/>
<path fill-rule="evenodd" clip-rule="evenodd" d="M91.6425 47.7044C94.0916 46.8257 94.2708 41.0793 92.0428 34.8696C89.8148 28.6599 86.0232 24.3383 83.5741 25.217C81.125 26.0958 80.9458 31.8421 83.1738 38.0518C83.2102 38.1533 83.2471 38.2543 83.2843 38.3548L86.0483 37.9724L84.6403 41.4569C86.8349 45.7543 89.6728 48.4111 91.6425 47.7044Z" fill="black"/>
<path d="M80.5872 55.7968C78.2326 55.8864 62.8149 56.9266 65.7873 65.774C69.2953 76.2155 83.3563 69.4157 83.167 64.6591" stroke="black" stroke-width="3.40666" stroke-linecap="round"/>
<path d="M98.4953 70.8512C98.7548 71.5745 98.637 72.4745 98.0218 73.4014C97.4066 74.3283 96.3374 75.1938 94.9298 75.6988C93.5221 76.2039 92.1467 76.2156 91.0824 75.8912C90.0183 75.5668 89.3553 74.947 89.0957 74.2237C88.8362 73.5003 88.954 72.6004 89.5692 71.6735C90.1844 70.7465 91.2535 69.881 92.6612 69.376C94.0688 68.8709 95.4443 68.8592 96.5085 69.1837C97.5726 69.508 98.2357 70.1278 98.4953 70.8512Z" stroke="black" stroke-width="2.83889"/>
<mask id="path-7-inside-1_1_416" fill="white">
<path fill-rule="evenodd" clip-rule="evenodd" d="M160.77 18.6099C161.674 47.8263 143.096 75.9355 113.087 86.7024C76.133 99.9614 35.839 81.9001 23.0879 46.3615C10.3368 10.8228 29.9573 -28.7354 66.9114 -41.9944C99.3846 -53.6456 134.437 -41.1117 151.112 -13.7858C162.427 -17.1793 172.575 -16.1329 169.444 -1.1675C165.834 9.72415 163.231 15.5051 160.77 18.6099Z"/>
</mask>
<path fill-rule="evenodd" clip-rule="evenodd" d="M160.77 18.6099C161.674 47.8263 143.096 75.9355 113.087 86.7024C76.133 99.9614 35.839 81.9001 23.0879 46.3615C10.3368 10.8228 29.9573 -28.7354 66.9114 -41.9944C99.3846 -53.6456 134.437 -41.1117 151.112 -13.7858C162.427 -17.1793 172.575 -16.1329 169.444 -1.1675C165.834 9.72415 163.231 15.5051 160.77 18.6099Z" fill="#FFE4E2"/>
<path d="M160.77 18.6099L158.1 16.4937L157.326 17.47L157.365 18.7153L160.77 18.6099ZM151.112 -13.7858L148.204 -12.0112L149.574 -9.76763L152.091 -10.5227L151.112 -13.7858ZM169.444 -1.1675L172.677 -0.0957637L172.738 -0.279956L172.778 -0.469887L169.444 -1.1675ZM157.365 18.7153C158.222 46.4252 140.584 73.2173 111.937 83.4959L114.238 89.9089C145.607 78.6538 165.126 49.2274 164.175 18.5045L157.365 18.7153ZM111.937 83.4959C76.6343 96.1622 38.3681 78.8618 26.2944 45.211L19.8814 47.512C33.3098 84.9384 75.6318 103.761 114.238 89.9089L111.937 83.4959ZM26.2944 45.211C14.2206 11.5601 32.7595 -26.1216 68.0619 -38.7879L65.7609 -45.2009C27.1551 -31.3493 6.45295 10.0855 19.8814 47.512L26.2944 45.211ZM68.0619 -38.7879C99.0692 -49.9132 132.401 -37.9079 148.204 -12.0112L154.02 -15.5603C136.473 -44.3155 99.7 -57.3781 65.7609 -45.2009L68.0619 -38.7879ZM172.778 -0.469887C173.627 -4.52658 173.67 -8.04857 172.736 -10.9681C171.759 -14.0199 169.784 -16.1777 167.169 -17.4326C164.676 -18.6284 161.803 -18.915 158.992 -18.7512C156.151 -18.5857 153.122 -17.9451 150.134 -17.0488L152.091 -10.5227C154.76 -11.3232 157.242 -11.8244 159.388 -11.9494C161.564 -12.0762 163.154 -11.8021 164.221 -11.2898C165.166 -10.8366 165.848 -10.1389 166.247 -8.89157C166.688 -7.51192 166.826 -5.2911 166.109 -1.86512L172.778 -0.469887ZM163.439 20.7262C166.325 17.0861 169.083 10.7476 172.677 -0.0957637L166.21 -2.23924C162.584 8.70067 160.137 13.9242 158.1 16.4937L163.439 20.7262Z" fill="black" mask="url(#path-7-inside-1_1_416)"/>
<path d="M67.0229 41.727C68.4756 45.7758 68.7722 49.734 68.146 52.8309C67.5136 55.9582 66.0142 57.9579 64.0909 58.648C62.1677 59.338 59.7389 58.7477 57.2626 56.7358C54.8104 54.7435 52.5229 51.4996 51.0702 47.4507C49.6175 43.4019 49.3209 39.4437 49.9471 36.3468C50.5795 33.2195 52.079 31.2198 54.0022 30.5297C55.9255 29.8397 58.3542 30.43 60.8305 32.4419C63.2828 34.4342 65.5702 37.6781 67.0229 41.727Z" fill="white" stroke="black" stroke-width="2.83889"/>
<path d="M91.244 33.0366C92.6822 37.0449 92.9704 40.9503 92.356 43.9884C91.7343 47.063 90.2769 48.951 88.4833 49.5945C86.6897 50.2381 84.3645 49.7073 81.9299 47.7293C79.5242 45.7747 77.2639 42.577 75.8257 38.5686C74.3875 34.5603 74.0993 30.6549 74.7137 27.6168C75.3354 24.5422 76.7928 22.6542 78.5864 22.0107C80.38 21.3671 82.7052 21.8979 85.1398 23.8759C87.5455 25.8305 89.8058 29.0282 91.244 33.0366Z" fill="white" stroke="black" stroke-width="3.40666"/>
<path fill-rule="evenodd" clip-rule="evenodd" d="M66.5438 54.4784C68.9929 53.5997 69.1722 47.8534 66.9442 41.6437C64.7161 35.434 60.9246 31.1124 58.4755 31.9911C56.0264 32.8698 55.8472 38.6161 58.0752 44.8258C58.1117 44.9276 58.1486 45.0288 58.1859 45.1295L60.9466 44.7476L59.5402 48.2281C61.735 52.5272 64.5738 55.1853 66.5438 54.4784Z" fill="black"/>
<path fill-rule="evenodd" clip-rule="evenodd" d="M90.9335 45.7276C93.3826 44.8489 93.5618 39.1025 91.3338 32.8928C89.1058 26.6831 85.3142 22.3615 82.8651 23.2402C80.416 24.119 80.2368 29.8653 82.4648 36.075C82.5013 36.1765 82.5381 36.2775 82.5753 36.378L85.3393 35.9957L83.9314 39.4801C86.126 43.7775 88.9639 46.4343 90.9335 45.7276Z" fill="black"/>
<path d="M79.1189 52.8421C77.0664 52.9201 63.6267 53.8269 66.2178 61.5392C69.2757 70.6412 81.5328 64.7137 81.3677 60.5674" stroke="black" stroke-width="3.40666" stroke-linecap="round"/>
<path d="M97.7501 68.7755C98.0097 69.4988 97.8919 70.3988 97.2767 71.3257C96.6615 72.2527 95.5923 73.1181 94.1847 73.6232C92.777 74.1282 91.4015 74.1399 90.3373 73.8155C89.2732 73.4911 88.6101 72.8713 88.3506 72.148C88.0911 71.4246 88.2089 70.5247 88.824 69.5978C89.4393 68.6708 90.5084 67.8054 91.9161 67.3003C93.3237 66.7953 94.6992 66.7836 95.7634 67.108C96.8275 67.4324 97.4906 68.0521 97.7501 68.7755Z" stroke="black" stroke-width="2.83889"/>
</g>
<defs>
<filter id="filter0_f_1_416" x="-4.6" y="-92.0946" width="202.981" height="207.404" filterUnits="userSpaceOnUse" color-interpolation-filters="sRGB">
<feFlood flood-opacity="0" result="BackgroundImageFix"/>
<feBlend mode="normal" in="SourceGraphic" in2="BackgroundImageFix" result="shape"/>
<feGaussianBlur stdDeviation="2.3" result="effect1_foregroundBlur_1_416"/>
</filter>
</defs>
</svg>
