<svg width="222" height="192" viewBox="0 0 222 192" fill="none" xmlns="http://www.w3.org/2000/svg">
<path d="M61.0163 113.015C61.0163 119.038 59.5406 124.376 57.2802 128.128C54.9921 131.927 52.1611 133.743 49.4798 133.743C46.7985 133.743 43.9676 131.927 41.6794 128.128C39.419 124.376 37.9434 119.038 37.9434 113.015C37.9434 106.992 39.419 101.654 41.6794 97.9015C43.9676 94.103 46.7985 92.2869 49.4798 92.2869C52.1611 92.2869 54.9921 94.103 57.2802 97.9015C59.5406 101.654 61.0163 106.992 61.0163 113.015Z" fill="white" stroke="black" stroke-width="4.77745"/>
<path d="M97.6344 113.015C97.6344 119.038 96.1588 124.376 93.8984 128.128C91.6102 131.927 88.7793 133.743 86.098 133.743C83.4167 133.743 80.5858 131.927 78.2976 128.128C76.0372 124.376 74.5616 119.038 74.5616 113.015C74.5616 106.992 76.0372 101.654 78.2976 97.9015C80.5858 94.103 83.4167 92.2869 86.098 92.2869C88.7793 92.2869 91.6102 94.103 93.8984 97.9015C96.1588 101.654 97.6344 106.992 97.6344 113.015Z" fill="white" stroke="black" stroke-width="4.77745"/>
<path fill-rule="evenodd" clip-rule="evenodd" d="M54.7111 129.674C58.3733 129.674 61.3421 122.199 61.3421 112.978C61.3421 103.758 58.3733 96.2829 54.7111 96.2829C51.0489 96.2829 48.0801 103.758 48.0801 112.978C48.0801 113.129 48.0809 113.28 48.0825 113.43L51.9212 114.231L48.4038 118.145C49.2679 124.837 51.7652 129.674 54.7111 129.674Z" fill="black"/>
<path fill-rule="evenodd" clip-rule="evenodd" d="M91.1818 129.674C94.844 129.674 97.8128 122.199 97.8128 112.978C97.8128 103.758 94.844 96.2829 91.1818 96.2829C87.5196 96.2829 84.5508 103.758 84.5508 112.978C84.5508 113.129 84.5516 113.279 84.5532 113.429L88.3966 114.231L84.8751 118.15C85.7398 124.839 88.2365 129.674 91.1818 129.674Z" fill="black"/>
<path d="M72.6892 135.101C69.5273 134.108 48.6078 128.199 48.3402 141.241C48.0244 156.633 69.8843 154.324 71.8945 147.977" stroke="black" stroke-width="5.73294" stroke-linecap="round"/>
<path d="M88.867 163.358C88.867 164.268 88.3739 165.285 87.1914 166.16C86.0093 167.035 84.2631 167.647 82.2301 167.647C80.1972 167.647 78.451 167.035 77.2689 166.16C76.0864 165.285 75.5933 164.268 75.5933 163.358C75.5933 162.448 76.0864 161.431 77.2689 160.556C78.451 159.681 80.1972 159.069 82.2301 159.069C84.2631 159.069 86.0093 159.681 87.1914 160.556C88.3739 161.431 88.867 162.448 88.867 163.358Z" stroke="black" stroke-width="4.77745"/>
<mask id="path-7-inside-1_1_558" fill="white">
<path fill-rule="evenodd" clip-rule="evenodd" d="M196.59 124.028C183.901 162.889 145.927 191.098 101.055 191.098C45.796 191.098 1 148.319 1 95.549C1 42.7788 45.796 0 101.055 0C149.613 0 190.092 33.0333 199.195 76.852C215.797 77.728 228.744 83.8944 217.482 102.104C207.523 114.729 201.326 121.105 196.59 124.028Z"/>
</mask>
<path fill-rule="evenodd" clip-rule="evenodd" d="M196.59 124.028C183.901 162.889 145.927 191.098 101.055 191.098C45.796 191.098 1 148.319 1 95.549C1 42.7788 45.796 0 101.055 0C149.613 0 190.092 33.0333 199.195 76.852C215.797 77.728 228.744 83.8944 217.482 102.104C207.523 114.729 201.326 121.105 196.59 124.028Z" fill="#FFE4E2"/>
<path d="M196.59 124.028L195.015 121.475L194.079 122.052L193.738 123.097L196.59 124.028ZM199.195 76.852L196.257 77.4622L196.728 79.726L199.037 79.8478L199.195 76.852ZM217.482 102.104L219.838 103.962L219.944 103.828L220.034 103.682L217.482 102.104ZM193.738 123.097C181.463 160.688 144.668 188.098 101.055 188.098V194.098C147.187 194.098 186.338 165.09 199.442 124.959L193.738 123.097ZM101.055 188.098C47.3211 188.098 4 146.534 4 95.549H-2C-2 150.105 44.2709 194.098 101.055 194.098V188.098ZM4 95.549C4 44.5644 47.3211 3 101.055 3V-3C44.271 -3 -2 40.9931 -2 95.549H4ZM101.055 3C148.257 3 187.457 35.0991 196.257 77.4622L202.132 76.2418C192.727 30.9676 150.969 -3 101.055 -3V3ZM220.034 103.682C222.999 98.8879 224.573 94.5733 224.709 90.7044C224.849 86.711 223.443 83.4056 220.915 80.8628C218.473 78.4065 215.121 76.7907 211.482 75.727C207.817 74.6557 203.649 74.0828 199.353 73.8561L199.037 79.8478C203.042 80.0591 206.718 80.5856 209.798 81.486C212.904 82.3939 215.198 83.622 216.66 85.093C218.036 86.4775 218.793 88.1827 218.712 90.4943C218.627 92.9304 217.597 96.2151 214.931 100.526L220.034 103.682ZM198.165 126.581C203.413 123.343 209.905 116.553 219.838 103.962L215.127 100.246C205.14 112.905 199.24 118.868 195.015 121.475L198.165 126.581Z" fill="black" mask="url(#path-7-inside-1_1_558)"/>
<path d="M61.905 110.19C61.905 116.273 60.3999 121.709 58.0454 125.574C55.6747 129.465 52.6025 131.55 49.4798 131.55C46.3572 131.55 43.2849 129.465 40.9143 125.574C38.5598 121.709 37.0547 116.273 37.0547 110.19C37.0547 104.106 38.5598 98.6709 40.9143 94.8057C43.2849 90.9141 46.3572 88.8299 49.4798 88.8299C52.6025 88.8299 55.6747 90.9141 58.0454 94.8057C60.3999 98.6709 61.905 104.106 61.905 110.19Z" fill="white" stroke="black" stroke-width="3"/>
<path d="M98.5231 110.19C98.5231 116.273 97.018 121.709 94.6635 125.574C92.2929 129.465 89.2207 131.55 86.098 131.55C82.9753 131.55 79.9031 129.465 77.5325 125.574C75.178 121.709 73.6729 116.273 73.6729 110.19C73.6729 104.106 75.178 98.6709 77.5325 94.8057C79.9031 90.9141 82.9753 88.8299 86.098 88.8299C89.2207 88.8299 92.2929 90.9141 94.6635 94.8057C97.018 98.6709 98.5231 104.106 98.5231 110.19Z" fill="white" stroke="black" stroke-width="3"/>
<path fill-rule="evenodd" clip-rule="evenodd" d="M54.7111 126.738C58.3733 126.738 61.3421 119.263 61.3421 110.043C61.3421 100.822 58.3733 93.3474 54.7111 93.3474C51.0489 93.3474 48.0801 100.822 48.0801 110.043C48.0801 110.194 48.0809 110.344 48.0825 110.495L51.9212 111.295L48.4038 115.21C49.2679 121.901 51.7652 126.738 54.7111 126.738Z" fill="black"/>
<path fill-rule="evenodd" clip-rule="evenodd" d="M91.1818 126.738C94.844 126.738 97.8128 119.263 97.8128 110.043C97.8128 100.822 94.844 93.3474 91.1818 93.3474C87.5196 93.3474 84.5508 100.822 84.5508 110.043C84.5508 110.193 84.5516 110.344 84.5532 110.494L88.3966 111.295L84.8751 115.214C85.7398 121.904 88.2366 126.738 91.1818 126.738Z" fill="black"/>
<path d="M72.1483 130.521C69.392 129.655 51.1563 124.504 50.9231 135.873C50.6478 149.29 69.7032 147.278 71.4555 141.745" stroke="black" stroke-width="3" stroke-linecap="round"/>
<path d="M89.7557 160.276C89.7557 161.533 89.0702 162.793 87.72 163.792C86.37 164.791 84.434 165.454 82.2301 165.454C80.0263 165.454 78.0902 164.791 76.7403 163.792C75.3901 162.793 74.7046 161.533 74.7046 160.276C74.7046 159.018 75.3901 157.758 76.7403 156.759C78.0902 155.761 80.0263 155.098 82.2301 155.098C84.434 155.098 86.37 155.761 87.72 156.759C89.0702 157.758 89.7557 159.018 89.7557 160.276Z" stroke="black" stroke-width="3"/>
<path d="M197.172 49.6367C202.667 63.7955 198.566 78.5943 188.011 82.6909C177.456 86.7874 175.495 73.1587 170 58.9999C164.504 44.8411 157.556 35.5139 168.111 31.4174C178.665 27.3208 191.677 35.4779 197.172 49.6367Z" fill="black"/>
<path d="M5.50322 33.9564C12.9609 20.7256 27.0021 14.5068 36.865 20.0662C46.7279 25.6256 28.9575 29.7693 21.4998 43C14.0421 56.2308 19.7211 73.5383 9.85823 67.9789C-0.00469371 62.4195 -1.9545 47.1871 5.50322 33.9564Z" fill="black"/>
<ellipse cx="43.5" cy="90" rx="17.5" ry="17" fill="#FFE4E2"/>
<path d="M62.4732 89.3289C61.5431 96.2688 54.3479 109.261 33.0081 105.709" stroke="black" stroke-width="3" stroke-linecap="round"/>
</svg>
