<svg width="288" height="252" viewBox="0 0 288 252" fill="none" xmlns="http://www.w3.org/2000/svg">
<g opacity="0.1" filter="url(#filter0_f_1_412)">
<path d="M35.1498 153.335C28.6133 158.252 21.5566 161.075 15.4803 161.721C9.37041 162.37 4.52336 160.813 1.92447 157.358C-0.674418 153.903 -0.827195 148.815 1.49041 143.124C3.79529 137.465 8.464 131.467 15.0005 126.55C21.537 121.633 28.5936 118.81 34.67 118.164C40.7798 117.515 45.6269 119.072 48.2258 122.527C50.8247 125.981 50.9775 131.07 48.6599 136.761C46.355 142.42 41.6863 148.417 35.1498 153.335Z" fill="white" stroke="black" stroke-width="2.83889"/>
<path d="M63.8861 191.534C57.3496 196.451 50.293 199.274 44.2166 199.92C38.1067 200.57 33.2597 199.012 30.6608 195.557C28.0619 192.103 27.9091 187.014 30.2267 181.323C32.5316 175.664 37.2003 169.667 43.7368 164.75C50.2733 159.832 57.3299 157.009 63.4063 156.363C69.5162 155.714 74.3632 157.271 76.9621 160.726C79.561 164.181 79.7138 169.27 77.3962 174.96C75.0913 180.619 70.4226 186.617 63.8861 191.534Z" fill="white" stroke="black" stroke-width="2.83889"/>
<path fill-rule="evenodd" clip-rule="evenodd" d="M11.6797 158.565C14.5537 162.385 24.736 159.575 34.4226 152.288C44.1092 145.001 49.632 135.997 46.758 132.176C43.884 128.356 33.7017 131.166 24.0151 138.453C23.8564 138.572 23.6988 138.692 23.5424 138.812L25.7138 143.45L18.8407 142.874C12.4893 149.064 9.36786 155.492 11.6797 158.565Z" fill="black"/>
<path fill-rule="evenodd" clip-rule="evenodd" d="M40.3008 196.611C43.1748 200.431 53.3571 197.621 63.0437 190.334C72.7303 183.047 78.2531 174.042 75.3791 170.222C72.5051 166.402 62.3228 169.212 52.6361 176.499C52.4778 176.618 52.3206 176.738 52.1645 176.858L54.3385 181.5L47.4576 180.924C41.109 187.113 37.9895 193.538 40.3008 196.611Z" fill="black"/>
<path d="M20.0863 181.609C18.6487 177.525 8.43913 151.032 -5.47183 161.06C-21.8894 172.895 -2.30935 193.874 5.93567 190.955" stroke="black" stroke-width="3.40666" stroke-linecap="round"/>
<path d="M4.11821 222.174C2.62116 223.3 0.566038 223.575 -1.66412 222.92C-3.8944 222.266 -6.20235 220.697 -7.99276 218.317C-9.78318 215.937 -10.6506 213.285 -10.6612 210.96C-10.6719 208.636 -9.83809 206.738 -8.34105 205.612C-6.84401 204.485 -4.78888 204.211 -2.55872 204.865C-0.328444 205.52 1.9795 207.088 3.76992 209.468C5.56033 211.848 6.42772 214.501 6.43837 216.825C6.44901 219.149 5.61525 221.047 4.11821 222.174Z" stroke="black" stroke-width="2.83889"/>
<mask id="path-7-inside-1_1_412" fill="white">
<path fill-rule="evenodd" clip-rule="evenodd" d="M128.953 302.109C78.1693 319.583 18.7341 302.264 -16.4804 255.453C-59.8456 197.808 -50.0592 117.269 5.37796 75.5651C60.8151 33.861 140.91 46.7839 184.275 104.429C222.382 155.085 219.446 223.418 180.556 267.543C192.665 285.555 196.347 303.934 168.379 306.577C147.301 306.164 135.74 304.74 128.953 302.109Z"/>
</mask>
<path fill-rule="evenodd" clip-rule="evenodd" d="M128.953 302.109C78.1693 319.583 18.7341 302.264 -16.4804 255.453C-59.8456 197.808 -50.0592 117.269 5.37796 75.5651C60.8151 33.861 140.91 46.7839 184.275 104.429C222.382 155.085 219.446 223.418 180.556 267.543C192.665 285.555 196.347 303.934 168.379 306.577C147.301 306.164 135.74 304.74 128.953 302.109Z" fill="#FFE4E2"/>
<path d="M128.953 302.109L130.184 298.932L129.022 298.482L127.844 298.887L128.953 302.109ZM180.556 267.543L178.001 265.291L176.263 267.263L177.729 269.444L180.556 267.543ZM168.379 306.577L168.313 309.983L168.507 309.987L168.7 309.968L168.379 306.577ZM127.844 298.887C78.486 315.872 20.5873 299.06 -13.7581 253.405L-19.2028 257.501C16.881 305.467 77.8525 323.295 130.061 305.33L127.844 298.887ZM-13.7581 253.405C-56.0683 197.162 -46.4085 118.786 7.42592 78.2875L3.33 72.8427C-53.7099 115.753 -63.6228 198.453 -19.2028 257.501L-13.7581 253.405ZM7.42592 78.2875C61.2604 37.7891 139.243 50.2342 181.553 106.477L186.998 102.381C142.578 43.3336 60.3699 29.933 3.33 72.8427L7.42592 78.2875ZM181.553 106.477C218.724 155.888 215.783 222.421 178.001 265.291L183.112 269.796C223.109 224.414 226.041 154.281 186.998 102.381L181.553 106.477ZM168.7 309.968C176.012 309.277 181.674 307.527 185.735 304.687C189.91 301.769 192.2 297.827 192.866 293.322C193.513 288.952 192.607 284.269 190.885 279.673C189.152 275.05 186.504 270.284 183.384 265.643L177.729 269.444C180.663 273.808 183.016 278.094 184.505 282.065C186.004 286.064 186.542 289.518 186.126 292.325C185.731 294.996 184.454 297.27 181.831 299.104C179.095 301.017 174.73 302.555 168.059 303.185L168.7 309.968ZM127.721 305.285C135.146 308.163 147.286 309.571 168.313 309.983L168.446 303.171C147.317 302.757 136.335 301.317 130.184 298.932L127.721 305.285Z" fill="black" mask="url(#path-7-inside-1_1_412)"/>
<path d="M38.1179 151.102C31.6581 155.961 24.6715 158.733 18.6461 159.344C12.59 159.957 7.76598 158.383 5.16237 154.922C2.55876 151.461 2.38371 146.39 4.6519 140.741C6.90856 135.121 11.5088 129.177 17.9685 124.317C24.4283 119.458 31.4149 116.686 37.4403 116.075C43.4964 115.462 48.3204 117.036 50.924 120.497C53.5276 123.958 53.7027 129.029 51.4345 134.678C49.1778 140.298 44.5776 146.242 38.1179 151.102Z" fill="white" stroke="black" stroke-width="2.83889"/>
<path d="M66.6835 189.074C60.2582 193.908 53.3195 196.656 47.3538 197.261C41.3512 197.869 36.6464 196.302 34.1256 192.951C31.6048 189.6 31.4035 184.645 33.6517 179.046C35.886 173.482 40.4502 167.577 46.8755 162.744C53.3009 157.91 60.2395 155.161 66.2052 154.557C72.2079 153.949 76.9127 155.516 79.4335 158.867C81.9543 162.218 82.1555 167.173 79.9074 172.771C77.6731 178.336 73.1089 184.241 66.6835 189.074Z" fill="white" stroke="black" stroke-width="3.40666"/>
<path fill-rule="evenodd" clip-rule="evenodd" d="M14.7632 156.245C17.6372 160.065 27.8195 157.255 37.5061 149.968C47.1927 142.681 52.7155 133.677 49.8415 129.856C46.9675 126.036 36.7852 128.846 27.0985 136.133C26.9399 136.253 26.7823 136.372 26.6259 136.493L28.7973 141.13L21.9242 140.555C15.5728 146.744 12.4513 153.172 14.7632 156.245Z" fill="black"/>
<path fill-rule="evenodd" clip-rule="evenodd" d="M43.3843 194.291C46.2583 198.111 56.4406 195.301 66.1272 188.014C75.8138 180.727 81.3366 171.723 78.4626 167.902C75.5886 164.082 65.4062 166.892 55.7196 174.179C55.5613 174.298 55.4041 174.418 55.2479 174.538L57.422 179.181L50.5411 178.604C44.1925 184.793 41.073 191.218 43.3843 194.291Z" fill="black"/>
<path d="M24.4735 177.424C23.2204 173.865 14.3206 150.771 2.19436 159.512C-12.1169 169.828 4.95111 188.117 12.1383 185.572" stroke="black" stroke-width="3.40666" stroke-linecap="round"/>
<path d="M7.35648 219.738C5.85944 220.864 3.80431 221.139 1.57415 220.484C-0.656131 219.83 -2.96408 218.261 -4.7545 215.881C-6.54491 213.501 -7.4123 210.849 -7.42294 208.524C-7.43358 206.2 -6.59982 204.302 -5.10277 203.176C-3.60573 202.05 -1.5506 201.775 0.679559 202.429C2.90984 203.084 5.21779 204.652 7.0082 207.032C8.79862 209.412 9.666 212.065 9.67665 214.389C9.68729 216.713 8.85352 218.612 7.35648 219.738Z" stroke="black" stroke-width="2.83889"/>
<ellipse cx="235.382" cy="153.834" rx="9.5249" ry="49.4104" transform="rotate(71.864 235.382 153.834)" fill="black"/>
<ellipse cx="169.182" cy="177.397" rx="11.3108" ry="11.3108" transform="rotate(71.864 169.182 177.397)" fill="black"/>
</g>
<defs>
<filter id="filter0_f_1_412" x="-99.6" y="-4.54678" width="386.633" height="390.475" filterUnits="userSpaceOnUse" color-interpolation-filters="sRGB">
<feFlood flood-opacity="0" result="BackgroundImageFix"/>
<feBlend mode="normal" in="SourceGraphic" in2="BackgroundImageFix" result="shape"/>
<feGaussianBlur stdDeviation="2.3" result="effect1_foregroundBlur_1_412"/>
</filter>
</defs>
</svg>
