<svg width="242" height="212" viewBox="0 0 242 212" fill="none" xmlns="http://www.w3.org/2000/svg">
<path d="M67.0031 124.91C67.0031 131.746 65.3428 137.866 62.7326 142.23C60.1051 146.622 56.6742 149.015 53.1548 149.015C49.6353 149.015 46.2044 146.622 43.5769 142.23C40.9668 137.866 39.3064 131.746 39.3064 124.91C39.3064 118.074 40.9668 111.954 43.5769 107.591C46.2044 103.198 49.6353 100.805 53.1548 100.805C56.6742 100.805 60.1051 103.198 62.7326 107.591C65.3428 111.954 67.0031 118.074 67.0031 124.91Z" fill="white" stroke="black" stroke-width="2.83889"/>
<path d="M107.152 124.91C107.152 131.746 105.491 137.866 102.881 142.23C100.254 146.622 96.8229 149.015 93.3035 149.015C89.784 149.015 86.3531 146.622 83.7256 142.23C81.1155 137.866 79.4551 131.746 79.4551 124.91C79.4551 118.074 81.1155 111.954 83.7256 107.591C86.3531 103.198 89.784 100.805 93.3035 100.805C96.8229 100.805 100.254 103.198 102.881 107.591C105.491 111.954 107.152 118.074 107.152 124.91Z" fill="white" stroke="black" stroke-width="2.83889"/>
<path fill-rule="evenodd" clip-rule="evenodd" d="M58.8903 143.304C62.9056 143.304 66.1606 135.051 66.1606 124.87C66.1606 114.689 62.9056 106.436 58.8903 106.436C54.8749 106.436 51.6199 114.689 51.6199 124.87C51.6199 125.036 51.6207 125.203 51.6225 125.368L55.8315 126.253L51.9748 130.575C52.9223 137.963 55.6603 143.304 58.8903 143.304Z" fill="black"/>
<path fill-rule="evenodd" clip-rule="evenodd" d="M98.8776 143.304C102.893 143.304 106.148 135.051 106.148 124.87C106.148 114.689 102.893 106.436 98.8776 106.436C94.8622 106.436 91.6072 114.689 91.6072 124.87C91.6072 125.036 91.608 125.202 91.6098 125.367L95.8238 126.253L91.9627 130.58C92.9108 137.966 95.6483 143.304 98.8776 143.304Z" fill="black"/>
<path d="M78.6017 149.297C75.1349 148.2 52.1982 141.675 51.9048 156.076C51.5586 173.07 75.5263 170.522 77.7303 163.514" stroke="black" stroke-width="3.40666" stroke-linecap="round"/>
<path d="M97.5389 180.496C97.5389 181.981 96.7342 183.438 95.2118 184.572C93.6894 185.706 91.5199 186.45 89.0626 186.45C86.6052 186.45 84.4358 185.706 82.9133 184.572C81.3909 183.438 80.5862 181.981 80.5862 180.496C80.5862 179.011 81.3909 177.555 82.9133 176.42C84.4358 175.286 86.6052 174.542 89.0626 174.542C91.5199 174.542 93.6894 175.286 95.2118 176.42C96.7342 177.555 97.5389 179.011 97.5389 180.496Z" stroke="black" stroke-width="2.83889"/>
<mask id="path-7-inside-1_57_613" fill="white">
<path fill-rule="evenodd" clip-rule="evenodd" d="M214.449 137.069C200.536 179.978 158.901 211.125 109.702 211.125C49.1153 211.125 0 163.891 0 105.625C0 47.3592 49.1153 0.125244 109.702 0.125244C162.942 0.125244 207.324 36.5988 217.305 84.9809C235.508 85.9483 249.702 92.7569 237.355 112.863C226.436 126.802 219.642 133.842 214.449 137.069Z"/>
</mask>
<path fill-rule="evenodd" clip-rule="evenodd" d="M214.449 137.069C200.536 179.978 158.901 211.125 109.702 211.125C49.1153 211.125 0 163.891 0 105.625C0 47.3592 49.1153 0.125244 109.702 0.125244C162.942 0.125244 207.324 36.5988 217.305 84.9809C235.508 85.9483 249.702 92.7569 237.355 112.863C226.436 126.802 219.642 133.842 214.449 137.069Z" fill="#FFE4E2"/>
<path d="M214.449 137.069L212.651 134.176L211.593 134.834L211.208 136.019L214.449 137.069ZM217.305 84.9809L213.968 85.6692L214.499 88.2433L217.124 88.3828L217.305 84.9809ZM237.355 112.863L240.037 114.964L240.157 114.811L240.258 114.645L237.355 112.863ZM211.208 136.019C197.761 177.494 157.456 207.719 109.702 207.719V214.532C160.347 214.532 203.312 182.463 217.689 138.12L211.208 136.019ZM109.702 207.719C50.8701 207.719 3.40666 161.886 3.40666 105.625H-3.40666C-3.40666 165.897 47.3605 214.532 109.702 214.532V207.719ZM3.40666 105.625C3.40666 49.3648 50.8701 3.53191 109.702 3.53191V-3.28142C47.3605 -3.28142 -3.40666 45.3536 -3.40666 105.625H3.40666ZM109.702 3.53191C161.385 3.53191 204.326 38.9268 213.968 85.6692L220.641 84.2927C210.322 34.2708 164.5 -3.28142 109.702 -3.28142V3.53191ZM240.258 114.645C243.514 109.344 245.246 104.567 245.396 100.279C245.55 95.8511 244.002 92.1793 241.211 89.3517C238.515 86.6213 234.818 84.8286 230.815 83.6502C226.784 82.4634 222.203 81.8298 217.486 81.5791L217.124 88.3828C221.508 88.6158 225.528 89.196 228.891 90.1862C232.283 91.1848 234.777 92.5323 236.362 94.1382C237.851 95.6469 238.675 97.5075 238.586 100.042C238.493 102.714 237.37 106.328 234.452 111.08L240.258 114.645ZM216.247 139.963C222.02 136.375 229.149 128.863 240.037 114.964L234.673 110.762C223.722 124.741 217.264 131.309 212.651 134.176L216.247 139.963Z" fill="black" mask="url(#path-7-inside-1_57_613)"/>
<path d="M67.0031 121.791C67.0031 128.545 65.344 134.592 62.7362 138.904C60.1124 143.241 56.6821 145.612 53.1548 145.612C49.6275 145.612 46.1972 143.241 43.5733 138.904C40.9655 134.592 39.3064 128.545 39.3064 121.791C39.3064 115.036 40.9655 108.989 43.5733 104.677C46.1972 100.34 49.6275 97.9694 53.1548 97.9694C56.6821 97.9694 60.1124 100.34 62.7362 104.677C65.344 108.989 67.0031 115.036 67.0031 121.791Z" fill="white" stroke="black" stroke-width="2.83889"/>
<path d="M106.868 121.791C106.868 128.502 105.219 134.497 102.642 138.757C100.046 143.048 96.693 145.328 93.3035 145.328C89.9139 145.328 86.561 143.048 83.9649 138.757C81.3881 134.497 79.739 128.502 79.739 121.791C79.739 115.079 81.3881 109.084 83.9649 104.824C86.561 100.533 89.9139 98.2533 93.3035 98.2533C96.693 98.2533 100.046 100.533 102.642 104.824C105.219 109.084 106.868 115.079 106.868 121.791Z" fill="white" stroke="black" stroke-width="3.40666"/>
<path fill-rule="evenodd" clip-rule="evenodd" d="M58.8903 140.063C62.9056 140.063 66.1606 131.809 66.1606 121.628C66.1606 111.448 62.9056 103.194 58.8903 103.194C54.8749 103.194 51.6199 111.448 51.6199 121.628C51.6199 121.795 51.6207 121.962 51.6225 122.127L55.8315 123.011L51.9748 127.334C52.9223 134.722 55.6603 140.063 58.8903 140.063Z" fill="black"/>
<path fill-rule="evenodd" clip-rule="evenodd" d="M98.8776 140.063C102.893 140.063 106.148 131.809 106.148 121.628C106.148 111.448 102.893 103.194 98.8776 103.194C94.8622 103.194 91.6072 111.448 91.6072 121.628C91.6072 121.795 91.608 121.961 91.6098 122.126L95.8238 123.011L91.9627 127.339C92.9108 134.725 95.6483 140.063 98.8776 140.063Z" fill="black"/>
<path d="M78.0085 144.239C74.9865 143.283 54.9925 137.596 54.7368 150.149C54.4349 164.963 75.3277 162.741 77.2489 156.633" stroke="black" stroke-width="3.40666" stroke-linecap="round"/>
<path d="M97.5389 177.093C97.5389 178.578 96.7342 180.034 95.2118 181.169C93.6894 182.303 91.5199 183.047 89.0626 183.047C86.6052 183.047 84.4358 182.303 82.9133 181.169C81.3909 180.034 80.5862 178.578 80.5862 177.093C80.5862 175.608 81.3909 174.152 82.9133 173.017C84.4358 171.883 86.6052 171.139 89.0626 171.139C91.5199 171.139 93.6894 171.883 95.2118 173.017C96.7342 174.152 97.5389 175.608 97.5389 177.093Z" stroke="black" stroke-width="2.83889"/>
</svg>
