<svg width="243" height="248" viewBox="0 0 243 248" fill="none" xmlns="http://www.w3.org/2000/svg">
<path d="M82.7643 169.948C82.7643 175.97 81.2927 181.306 79.0389 185.057C76.7567 188.855 73.9358 190.666 71.2689 190.666C68.6019 190.666 65.781 188.855 63.4989 185.057C61.245 181.306 59.7735 175.97 59.7735 169.948C59.7735 163.926 61.245 158.59 63.4989 154.838C65.781 151.04 68.6019 149.229 71.2689 149.229C73.9358 149.229 76.7567 151.04 79.0389 154.838C81.2927 158.59 82.7643 163.926 82.7643 169.948Z" fill="white" stroke="black" stroke-width="4.77745"/>
<path d="M119.274 169.948C119.274 175.97 117.803 181.306 115.549 185.057C113.267 188.855 110.446 190.666 107.779 190.666C105.112 190.666 102.291 188.855 100.009 185.057C97.7548 181.306 96.2833 175.97 96.2833 169.948C96.2833 163.926 97.7548 158.59 100.009 154.838C102.291 151.04 105.112 149.229 107.779 149.229C110.446 149.229 113.267 151.04 115.549 154.838C117.803 158.59 119.274 163.926 119.274 169.948Z" fill="white" stroke="black" stroke-width="4.77745"/>
<path fill-rule="evenodd" clip-rule="evenodd" d="M76.4845 186.6C80.1359 186.6 83.096 179.128 83.096 169.911C83.096 160.694 80.1359 153.222 76.4845 153.222C72.8331 153.222 69.873 160.694 69.873 169.911C69.873 170.062 69.8738 170.213 69.8754 170.363L73.7027 171.163L70.1958 175.076C71.0574 181.765 73.5473 186.6 76.4845 186.6Z" fill="black"/>
<path fill-rule="evenodd" clip-rule="evenodd" d="M112.848 186.6C116.499 186.6 119.459 179.128 119.459 169.911C119.459 160.694 116.499 153.222 112.848 153.222C109.196 153.222 106.236 160.694 106.236 169.911C106.236 170.062 106.237 170.212 106.239 170.362L110.071 171.163L106.56 175.081C107.422 181.767 109.911 186.6 112.848 186.6Z" fill="black"/>
<path d="M94.4102 192.025C91.2577 191.032 70.3997 185.126 70.1329 198.162C69.818 213.548 91.6136 211.241 93.6178 204.896" stroke="black" stroke-width="5.73294" stroke-linecap="round"/>
<path d="M110.533 220.271C110.533 221.183 110.04 222.199 108.863 223.073C107.686 223.946 105.947 224.558 103.923 224.558C101.899 224.558 100.16 223.946 98.9827 223.073C97.8053 222.199 97.3126 221.183 97.3126 220.271C97.3126 219.359 97.8053 218.343 98.9827 217.469C100.16 216.596 101.899 215.984 103.923 215.984C105.947 215.984 107.686 216.596 108.863 217.469C110.04 218.343 110.533 219.359 110.533 220.271Z" stroke="black" stroke-width="4.77745"/>
<mask id="path-7-inside-1_1_1571" fill="white">
<path fill-rule="evenodd" clip-rule="evenodd" d="M217.945 180.956C205.293 219.802 167.432 248 122.692 248C67.5957 248 22.9316 205.238 22.9316 152.489C22.9316 99.7393 67.5957 56.9774 122.692 56.9774C171.107 56.9774 211.466 89.9977 220.542 133.799C237.096 134.675 250.004 140.839 238.776 159.041C228.846 171.661 222.668 178.035 217.945 180.956Z"/>
</mask>
<path fill-rule="evenodd" clip-rule="evenodd" d="M217.945 180.956C205.293 219.802 167.432 248 122.692 248C67.5957 248 22.9316 205.238 22.9316 152.489C22.9316 99.7393 67.5957 56.9774 122.692 56.9774C171.107 56.9774 211.466 89.9977 220.542 133.799C237.096 134.675 250.004 140.839 238.776 159.041C228.846 171.661 222.668 178.035 217.945 180.956Z" fill="#FFE4E2"/>
<path d="M217.945 180.956L216.367 178.405L215.433 178.983L215.093 180.027L217.945 180.956ZM220.542 133.799L217.605 134.408L218.074 136.673L220.384 136.795L220.542 133.799ZM238.776 159.041L241.134 160.896L241.239 160.762L241.329 160.616L238.776 159.041ZM215.093 180.027C202.853 217.606 166.167 245 122.692 245V251C168.696 251 207.733 221.999 220.798 181.885L215.093 180.027ZM122.692 245C69.1281 245 25.9316 203.46 25.9316 152.489H19.9316C19.9316 207.017 66.0632 251 122.692 251V245ZM25.9316 152.489C25.9316 101.518 69.1281 59.9774 122.692 59.9774V53.9774C66.0632 53.9774 19.9316 97.9607 19.9316 152.489H25.9316ZM122.692 59.9774C169.745 59.9774 208.83 92.0578 217.605 134.408L223.48 133.19C214.103 87.9376 172.468 53.9774 122.692 53.9774V59.9774ZM241.329 160.616C244.285 155.824 245.855 151.512 245.99 147.646C246.129 143.656 244.729 140.353 242.208 137.81C239.772 135.354 236.427 133.738 232.797 132.674C229.142 131.603 224.985 131.03 220.701 130.803L220.384 136.795C224.376 137.006 228.041 137.532 231.11 138.432C234.205 139.339 236.49 140.566 237.947 142.035C239.319 143.418 240.074 145.123 239.994 147.436C239.908 149.873 238.881 153.157 236.223 157.466L241.329 160.616ZM219.523 183.507C224.757 180.27 231.231 173.481 241.134 160.896L236.418 157.186C226.461 169.84 220.578 175.8 216.367 178.405L219.523 183.507Z" fill="black" mask="url(#path-7-inside-1_1_1571)"/>
<path d="M83.653 167.124C83.653 173.205 82.1521 178.639 79.8045 182.503C77.4404 186.394 74.3783 188.474 71.2689 188.474C68.1594 188.474 65.0973 186.394 62.7332 182.503C60.3856 178.639 58.8848 173.205 58.8848 167.124C58.8848 161.042 60.3856 155.608 62.7332 151.745C65.0973 147.854 68.1594 145.773 71.2689 145.773C74.3783 145.773 77.4404 147.854 79.8045 151.745C82.1521 155.608 83.653 161.042 83.653 167.124Z" fill="white" stroke="black" stroke-width="3"/>
<path d="M120.163 167.124C120.163 173.205 118.662 178.639 116.314 182.503C113.95 186.394 110.888 188.474 107.779 188.474C104.669 188.474 101.607 186.394 99.243 182.503C96.8954 178.639 95.3945 173.205 95.3945 167.124C95.3945 161.042 96.8954 155.608 99.243 151.745C101.607 147.854 104.669 145.773 107.779 145.773C110.888 145.773 113.95 147.854 116.314 151.745C118.662 155.608 120.163 161.042 120.163 167.124Z" fill="white" stroke="black" stroke-width="3"/>
<path fill-rule="evenodd" clip-rule="evenodd" d="M76.4845 183.666C80.1359 183.666 83.096 176.194 83.096 166.977C83.096 157.76 80.1359 150.288 76.4845 150.288C72.8331 150.288 69.873 157.76 69.873 166.977C69.873 167.128 69.8738 167.278 69.8754 167.428L73.7027 168.229L70.1958 172.142C71.0574 178.831 73.5473 183.666 76.4845 183.666Z" fill="black"/>
<path fill-rule="evenodd" clip-rule="evenodd" d="M112.848 183.666C116.499 183.666 119.459 176.194 119.459 166.977C119.459 157.76 116.499 150.288 112.848 150.288C109.196 150.288 106.236 157.76 106.236 166.977C106.236 167.127 106.237 167.278 106.239 167.427L110.071 168.229L106.56 172.146C107.422 178.833 109.911 183.666 112.848 183.666Z" fill="black"/>
<path d="M93.8718 187.447C91.1236 186.581 72.9417 181.433 72.7091 192.797C72.4346 206.209 91.4339 204.197 93.181 198.667" stroke="black" stroke-width="3" stroke-linecap="round"/>
<path d="M111.422 217.19C111.422 218.448 110.738 219.708 109.392 220.706C108.047 221.703 106.118 222.365 103.923 222.365C101.727 222.365 99.7983 221.703 98.4532 220.706C97.108 219.708 96.4238 218.448 96.4238 217.19C96.4238 215.932 97.108 214.672 98.4532 213.674C99.7983 212.677 101.727 212.014 103.923 212.014C106.118 212.014 108.047 212.677 109.392 213.674C110.738 214.672 111.422 215.932 111.422 217.19Z" stroke="black" stroke-width="3"/>
<path fill-rule="evenodd" clip-rule="evenodd" d="M151.606 0.029397C153.386 0.370234 151.549 6.74257 149.106 15.2161C147.388 21.1728 145.371 28.1678 144.101 34.8359C143.502 37.98 143.17 40.5242 143.001 42.5786C144.767 37.9768 147.973 32.4859 152.918 26.7185C164.277 13.4704 175.027 10.1767 178.397 13.0812C180.376 14.7868 175.145 19.531 168.189 25.8396L168.189 25.8397L168.188 25.8401C163.299 30.2747 157.557 35.4824 152.868 40.9509C149.974 44.3259 148.117 47.0595 146.899 49.2115C201.16 56.7124 227.045 105.559 227.045 135.198C225.653 147.45 218.918 149.067 208.374 145.468C205.962 151.803 202.447 157.763 198.95 162.687C193.002 171.061 189.327 164.622 183.582 154.559C181.092 150.197 178.213 145.154 174.591 140.341C173.9 141.839 173.123 143.248 172.272 144.546C168.101 150.902 162.976 147.203 156.568 139.917C156.347 140.456 156.116 140.985 155.875 141.503C151.252 151.421 143.105 143.52 132.271 133.014C124.656 125.628 115.712 116.955 105.733 112.28C92.9332 106.284 82.8642 109.249 77.3904 110.861C72.9463 112.17 71.531 112.587 74.1425 106.592C70.0264 107.648 66.2932 108.944 62.9074 110.392C55.7653 115.214 49.2692 121.595 43.5313 127.23C32.7647 137.805 24.6679 145.758 19.9824 135.869C14.7058 124.734 13.9455 108.267 21.006 95.0697C11.3402 96.6483 5.03937 96.0787 6.09821 87.7377C8.44592 69.2436 26.0504 46.0749 52.522 49.4525C62.3326 50.7043 70.2287 55.2025 76.1623 61.3104C91.5281 53.3234 110.427 48.2322 132.381 48.2322C134.932 48.2322 137.43 48.3188 139.876 48.4872C138.111 44.5528 137.418 35.7057 139.72 23.6227C142.796 7.46924 148.573 -0.55104 151.606 0.029397Z" fill="#090909"/>
</svg>
