<svg width="245" height="249" viewBox="0 0 245 249" fill="none" xmlns="http://www.w3.org/2000/svg">
<path d="M83.6569 170.015C83.6569 176.038 82.1813 181.376 79.9209 185.128C77.6327 188.927 74.8018 190.743 72.1205 190.743C69.4391 190.743 66.6082 188.927 64.3201 185.128C62.0596 181.376 60.584 176.038 60.584 170.015C60.584 163.992 62.0596 158.654 64.3201 154.901C66.6082 151.103 69.4391 149.287 72.1205 149.287C74.8018 149.287 77.6327 151.103 79.9209 154.901C82.1813 158.654 83.6569 163.992 83.6569 170.015Z" fill="white" stroke="black" stroke-width="4.77745"/>
<path d="M120.275 170.015C120.275 176.038 118.799 181.376 116.539 185.128C114.251 188.927 111.42 190.743 108.739 190.743C106.057 190.743 103.226 188.927 100.938 185.128C98.6778 181.376 97.2022 176.038 97.2022 170.015C97.2022 163.992 98.6778 158.654 100.938 154.901C103.226 151.103 106.057 149.287 108.739 149.287C111.42 149.287 114.251 151.103 116.539 154.901C118.799 158.654 120.275 163.992 120.275 170.015Z" fill="white" stroke="black" stroke-width="4.77745"/>
<path fill-rule="evenodd" clip-rule="evenodd" d="M77.3517 186.674C81.0139 186.674 83.9827 179.199 83.9827 169.978C83.9827 160.758 81.0139 153.283 77.3517 153.283C73.6895 153.283 70.7207 160.758 70.7207 169.978C70.7207 170.129 70.7215 170.28 70.7231 170.43L74.5617 171.231L71.0444 175.145C71.9085 181.837 74.4058 186.674 77.3517 186.674Z" fill="black"/>
<path fill-rule="evenodd" clip-rule="evenodd" d="M113.822 186.674C117.485 186.674 120.453 179.199 120.453 169.978C120.453 160.758 117.485 153.283 113.822 153.283C110.16 153.283 107.191 160.758 107.191 169.978C107.191 170.129 107.192 170.279 107.194 170.429L111.037 171.231L107.516 175.15C108.38 181.839 110.877 186.674 113.822 186.674Z" fill="black"/>
<path d="M95.3299 192.101C92.168 191.108 71.2484 185.199 70.9808 198.241C70.665 213.633 92.5249 211.324 94.5351 204.978" stroke="black" stroke-width="5.73294" stroke-linecap="round"/>
<path d="M111.508 220.358C111.508 221.268 111.015 222.285 109.832 223.16C108.65 224.035 106.904 224.648 104.871 224.648C102.838 224.648 101.092 224.035 99.9096 223.16C98.727 222.285 98.2339 221.268 98.2339 220.358C98.2339 219.448 98.727 218.431 99.9096 217.556C101.092 216.682 102.838 216.069 104.871 216.069C106.904 216.069 108.65 216.682 109.832 217.556C111.015 218.431 111.508 219.448 111.508 220.358Z" stroke="black" stroke-width="4.77745"/>
<mask id="path-7-inside-1_1_494" fill="white">
<path fill-rule="evenodd" clip-rule="evenodd" d="M219.231 181.028C206.541 219.889 168.568 248.098 123.695 248.098C68.4367 248.098 23.6406 205.319 23.6406 152.549C23.6406 99.7788 68.4367 57 123.695 57C172.254 57 212.733 90.0333 221.835 133.852C238.438 134.728 251.384 140.894 240.123 159.104C230.163 171.729 223.967 178.105 219.231 181.028Z"/>
</mask>
<path fill-rule="evenodd" clip-rule="evenodd" d="M219.231 181.028C206.541 219.889 168.568 248.098 123.695 248.098C68.4367 248.098 23.6406 205.319 23.6406 152.549C23.6406 99.7788 68.4367 57 123.695 57C172.254 57 212.733 90.0333 221.835 133.852C238.438 134.728 251.384 140.894 240.123 159.104C230.163 171.729 223.967 178.105 219.231 181.028Z" fill="#FFE4E2"/>
<path d="M219.231 181.028L217.655 178.475L216.72 179.052L216.379 180.097L219.231 181.028ZM221.835 133.852L218.898 134.462L219.368 136.726L221.677 136.848L221.835 133.852ZM240.123 159.104L242.478 160.962L242.584 160.828L242.674 160.682L240.123 159.104ZM216.379 180.097C204.104 217.688 167.308 245.098 123.695 245.098V251.098C169.827 251.098 208.978 222.09 222.082 181.959L216.379 180.097ZM123.695 245.098C69.9617 245.098 26.6406 203.534 26.6406 152.549H20.6406C20.6406 207.105 66.9116 251.098 123.695 251.098V245.098ZM26.6406 152.549C26.6406 101.564 69.9617 60 123.695 60V54C66.9116 54 20.6406 97.9931 20.6406 152.549H26.6406ZM123.695 60C170.898 60 210.098 92.0991 218.898 134.462L224.773 133.242C215.368 87.9675 173.609 54 123.695 54V60ZM242.674 160.682C245.639 155.888 247.214 151.573 247.349 147.704C247.489 143.711 246.083 140.406 243.556 137.863C241.114 135.407 237.761 133.791 234.122 132.727C230.457 131.656 226.29 131.083 221.993 130.856L221.677 136.848C225.682 137.059 229.359 137.586 232.439 138.486C235.545 139.394 237.838 140.622 239.301 142.093C240.677 143.477 241.434 145.183 241.353 147.494C241.268 149.93 240.237 153.215 237.572 157.526L242.674 160.682ZM220.806 183.581C226.054 180.343 232.546 173.553 242.478 160.962L237.768 157.246C227.781 169.905 221.88 175.868 217.655 178.475L220.806 183.581Z" fill="black" mask="url(#path-7-inside-1_1_494)"/>
<path d="M84.5456 167.19C84.5456 173.273 83.0405 178.708 80.686 182.574C78.3154 186.465 75.2431 188.55 72.1205 188.55C68.9978 188.55 65.9255 186.465 63.5549 182.574C61.2004 178.708 59.6953 173.273 59.6953 167.19C59.6953 161.106 61.2004 155.671 63.5549 151.806C65.9255 147.914 68.9978 145.83 72.1205 145.83C75.2431 145.83 78.3154 147.914 80.686 151.806C83.0405 155.671 84.5456 161.106 84.5456 167.19Z" fill="white" stroke="black" stroke-width="3"/>
<path d="M121.164 167.19C121.164 173.273 119.659 178.708 117.304 182.574C114.934 186.465 111.861 188.55 108.739 188.55C105.616 188.55 102.544 186.465 100.173 182.574C97.8186 178.708 96.3135 173.273 96.3135 167.19C96.3135 161.106 97.8186 155.671 100.173 151.806C102.544 147.914 105.616 145.83 108.739 145.83C111.861 145.83 114.934 147.914 117.304 151.806C119.659 155.671 121.164 161.106 121.164 167.19Z" fill="white" stroke="black" stroke-width="3"/>
<path fill-rule="evenodd" clip-rule="evenodd" d="M77.3517 183.738C81.0139 183.738 83.9827 176.263 83.9827 167.043C83.9827 157.822 81.0139 150.347 77.3517 150.347C73.6895 150.347 70.7207 157.822 70.7207 167.043C70.7207 167.194 70.7215 167.344 70.7231 167.495L74.5617 168.295L71.0444 172.21C71.9085 178.901 74.4058 183.738 77.3517 183.738Z" fill="black"/>
<path fill-rule="evenodd" clip-rule="evenodd" d="M113.822 183.738C117.485 183.738 120.453 176.263 120.453 167.043C120.453 157.822 117.485 150.347 113.822 150.347C110.16 150.347 107.191 157.822 107.191 167.043C107.191 167.194 107.192 167.344 107.194 167.494L111.037 168.295L107.516 172.214C108.38 178.904 110.877 183.738 113.822 183.738Z" fill="black"/>
<path d="M94.7894 187.521C92.0332 186.655 73.7974 181.504 73.5642 192.873C73.2889 206.29 92.3443 204.278 94.0966 198.745" stroke="black" stroke-width="3" stroke-linecap="round"/>
<path d="M112.396 217.276C112.396 218.533 111.711 219.793 110.361 220.792C109.011 221.791 107.075 222.454 104.871 222.454C102.667 222.454 100.731 221.791 99.3809 220.792C98.0307 219.793 97.3452 218.533 97.3452 217.276C97.3452 216.018 98.0307 214.759 99.3809 213.759C100.731 212.761 102.667 212.098 104.871 212.098C107.075 212.098 109.011 212.761 110.361 213.759C111.711 214.759 112.396 216.018 112.396 217.276Z" stroke="black" stroke-width="3"/>
<path fill-rule="evenodd" clip-rule="evenodd" d="M152.694 0.0294085C154.48 0.37038 152.637 6.74523 150.187 15.2221C148.464 21.1811 146.441 28.179 145.168 34.8496C144.567 37.995 144.234 40.5402 144.064 42.5954C145.835 37.9919 149.051 32.4988 154.01 26.729C165.403 13.4757 176.184 10.1807 179.565 13.0864C181.55 14.7926 176.303 19.5387 169.327 25.8498L169.327 25.8499L169.326 25.85C164.422 30.2865 158.663 35.4963 153.96 40.9671C151.058 44.3434 149.195 47.0781 147.974 49.231C202.395 56.7348 228.357 105.601 228.357 135.251C226.96 147.509 220.206 149.125 209.63 145.525C207.211 151.863 203.686 157.825 200.178 162.751C194.213 171.128 190.527 164.688 184.765 154.62C182.267 150.256 179.38 145.211 175.748 140.396C175.055 141.895 174.276 143.304 173.421 144.603C169.238 150.961 164.098 147.261 157.672 139.972C157.45 140.512 157.218 141.041 156.976 141.558C152.34 151.48 144.168 143.577 133.303 133.066C125.665 125.678 116.695 117.002 106.686 112.325C93.8484 106.326 83.7497 109.293 78.2597 110.905C73.8024 112.214 72.383 112.631 75.0022 106.634C70.8739 107.69 67.1297 108.987 63.7339 110.436C56.5707 115.26 50.0553 121.643 44.3005 127.281C33.5021 137.86 25.3814 145.815 20.682 135.923C15.3898 124.783 14.6272 108.31 21.7086 95.1073C12.0142 96.6865 5.69479 96.1166 6.75675 87.7724C9.11141 69.2709 26.7679 46.0931 53.3177 49.4721C63.1573 50.7243 71.0768 55.2243 77.028 61.3346C92.4391 53.3445 111.394 48.2512 133.412 48.2512C135.972 48.2512 138.477 48.3379 140.93 48.5064C139.16 44.5704 138.465 35.7198 140.773 23.6321C143.859 7.47219 149.653 -0.551258 152.694 0.0294085Z" fill="#090909"/>
</svg>
