<svg width="243" height="248" viewBox="0 0 243 248" fill="none" xmlns="http://www.w3.org/2000/svg">
<g clip-path="url(#clip0_44_899)">
<path d="M82.0163 170.015C82.0163 176.038 80.5406 181.376 78.2802 185.128C75.9921 188.927 73.1611 190.743 70.4798 190.743C67.7985 190.743 64.9676 188.927 62.6794 185.128C60.419 181.376 58.9434 176.038 58.9434 170.015C58.9434 163.992 60.419 158.654 62.6794 154.901C64.9676 151.103 67.7985 149.287 70.4798 149.287C73.1611 149.287 75.9921 151.103 78.2802 154.901C80.5406 158.654 82.0163 163.992 82.0163 170.015Z" fill="white" stroke="black" stroke-width="4.77745"/>
<path d="M118.635 170.015C118.635 176.038 117.16 181.376 114.899 185.128C112.611 188.927 109.78 190.743 107.099 190.743C104.418 190.743 101.587 188.927 99.2986 185.128C97.0382 181.376 95.5626 176.038 95.5626 170.015C95.5626 163.992 97.0382 158.654 99.2986 154.901C101.587 151.103 104.418 149.287 107.099 149.287C109.78 149.287 112.611 151.103 114.899 154.901C117.16 158.654 118.635 163.992 118.635 170.015Z" fill="white" stroke="black" stroke-width="4.77745"/>
<path fill-rule="evenodd" clip-rule="evenodd" d="M75.7111 186.674C79.3733 186.674 82.3421 179.199 82.3421 169.978C82.3421 160.758 79.3733 153.283 75.7111 153.283C72.0489 153.283 69.0801 160.758 69.0801 169.978C69.0801 170.129 69.0809 170.28 69.0825 170.43L72.9212 171.231L69.4038 175.145C70.2679 181.837 72.7652 186.674 75.7111 186.674Z" fill="black"/>
<path fill-rule="evenodd" clip-rule="evenodd" d="M112.182 186.674C115.844 186.674 118.813 179.199 118.813 169.978C118.813 160.758 115.844 153.283 112.182 153.283C108.52 153.283 105.551 160.758 105.551 169.978C105.551 170.129 105.552 170.279 105.553 170.429L109.397 171.231L105.875 175.15C106.74 181.839 109.237 186.674 112.182 186.674Z" fill="black"/>
<path d="M93.6902 192.101C90.5283 191.108 69.6087 185.199 69.3411 198.241C69.0253 213.633 90.8853 211.324 92.8954 204.977" stroke="black" stroke-width="5.73294" stroke-linecap="round"/>
<path d="M109.867 220.358C109.867 221.268 109.374 222.285 108.192 223.16C107.01 224.035 105.264 224.648 103.231 224.648C101.198 224.648 99.4514 224.035 98.2694 223.16C97.0869 222.285 96.5938 221.268 96.5938 220.358C96.5938 219.448 97.0869 218.431 98.2694 217.556C99.4514 216.682 101.198 216.069 103.231 216.069C105.264 216.069 107.01 216.682 108.192 217.556C109.374 218.431 109.867 219.448 109.867 220.358Z" stroke="black" stroke-width="4.77745"/>
<mask id="path-7-inside-1_44_899" fill="white">
<path fill-rule="evenodd" clip-rule="evenodd" d="M217.59 181.028C204.901 219.889 166.927 248.098 122.055 248.098C66.796 248.098 22 205.319 22 152.549C22 99.7788 66.796 57 122.055 57C170.613 57 211.092 90.0333 220.195 133.852C236.797 134.728 249.744 140.894 238.482 159.104C228.523 171.729 222.326 178.105 217.59 181.028Z"/>
</mask>
<path fill-rule="evenodd" clip-rule="evenodd" d="M217.59 181.028C204.901 219.889 166.927 248.098 122.055 248.098C66.796 248.098 22 205.319 22 152.549C22 99.7788 66.796 57 122.055 57C170.613 57 211.092 90.0333 220.195 133.852C236.797 134.728 249.744 140.894 238.482 159.104C228.523 171.729 222.326 178.105 217.59 181.028Z" fill="#FFE4E2"/>
<path d="M217.59 181.028L216.015 178.475L215.079 179.052L214.738 180.097L217.59 181.028ZM220.195 133.852L217.257 134.462L217.728 136.726L220.037 136.848L220.195 133.852ZM238.482 159.104L240.838 160.962L240.944 160.828L241.034 160.682L238.482 159.104ZM214.738 180.097C202.463 217.688 165.668 245.098 122.055 245.098V251.098C168.187 251.098 207.338 222.09 220.442 181.959L214.738 180.097ZM122.055 245.098C68.3211 245.098 25 203.534 25 152.549H19C19 207.105 65.2709 251.098 122.055 251.098V245.098ZM25 152.549C25 101.564 68.3211 60 122.055 60V54C65.271 54 19 97.9931 19 152.549H25ZM122.055 60C169.257 60 208.457 92.0991 217.257 134.462L223.132 133.242C213.727 87.9676 171.969 54 122.055 54V60ZM241.034 160.682C243.999 155.888 245.573 151.573 245.709 147.704C245.849 143.711 244.443 140.406 241.915 137.863C239.473 135.407 236.121 133.791 232.482 132.727C228.817 131.656 224.649 131.083 220.353 130.856L220.037 136.848C224.042 137.059 227.718 137.586 230.798 138.486C233.904 139.394 236.198 140.622 237.66 142.093C239.036 143.477 239.793 145.183 239.712 147.494C239.627 149.93 238.597 153.215 235.931 157.526L241.034 160.682ZM219.165 183.581C224.413 180.343 230.905 173.553 240.838 160.962L236.127 157.246C226.14 169.905 220.24 175.868 216.015 178.475L219.165 183.581Z" fill="black" mask="url(#path-7-inside-1_44_899)"/>
<path d="M82.905 167.19C82.905 173.273 81.3999 178.708 79.0454 182.574C76.6747 186.465 73.6025 188.55 70.4798 188.55C67.3572 188.55 64.2849 186.465 61.9143 182.574C59.5598 178.708 58.0547 173.273 58.0547 167.19C58.0547 161.106 59.5598 155.671 61.9143 151.806C64.2849 147.914 67.3572 145.83 70.4798 145.83C73.6025 145.83 76.6747 147.914 79.0454 151.806C81.3999 155.671 82.905 161.106 82.905 167.19Z" fill="white" stroke="black" stroke-width="3"/>
<path d="M119.524 167.19C119.524 173.273 118.019 178.708 115.665 182.574C113.294 186.465 110.222 188.55 107.099 188.55C103.976 188.55 100.904 186.465 98.5334 182.574C96.1789 178.708 94.6738 173.273 94.6738 167.19C94.6738 161.106 96.1789 155.671 98.5334 151.806C100.904 147.914 103.976 145.83 107.099 145.83C110.222 145.83 113.294 147.914 115.665 151.806C118.019 155.671 119.524 161.106 119.524 167.19Z" fill="white" stroke="black" stroke-width="3"/>
<path fill-rule="evenodd" clip-rule="evenodd" d="M75.7111 183.738C79.3733 183.738 82.3421 176.263 82.3421 167.043C82.3421 157.822 79.3733 150.347 75.7111 150.347C72.0489 150.347 69.0801 157.822 69.0801 167.043C69.0801 167.194 69.0809 167.344 69.0825 167.495L72.9212 168.295L69.4038 172.21C70.2679 178.901 72.7652 183.738 75.7111 183.738Z" fill="black"/>
<path fill-rule="evenodd" clip-rule="evenodd" d="M112.182 183.738C115.844 183.738 118.813 176.263 118.813 167.043C118.813 157.822 115.844 150.347 112.182 150.347C108.52 150.347 105.551 157.822 105.551 167.043C105.551 167.194 105.552 167.344 105.553 167.494L109.397 168.295L105.875 172.215C106.74 178.904 109.237 183.738 112.182 183.738Z" fill="black"/>
<path d="M93.1478 187.521C90.3916 186.655 72.1558 181.504 71.9226 192.873C71.6473 206.29 90.7027 204.278 92.455 198.745" stroke="black" stroke-width="3" stroke-linecap="round"/>
<path d="M110.756 217.276C110.756 218.533 110.071 219.793 108.72 220.792C107.371 221.791 105.435 222.454 103.231 222.454C101.027 222.454 99.0907 221.791 97.7408 220.792C96.3906 219.793 95.7051 218.533 95.7051 217.276C95.7051 216.018 96.3906 214.759 97.7408 213.759C99.0907 212.761 101.027 212.098 103.231 212.098C105.435 212.098 107.371 212.761 108.72 213.759C110.071 214.759 110.756 216.018 110.756 217.276Z" stroke="black" stroke-width="3"/>
<path d="M218.172 106.637C223.667 120.795 219.566 135.594 209.011 139.691C198.456 143.787 196.495 130.159 191 116C185.504 101.841 178.556 92.5139 189.111 88.4174C199.665 84.3208 212.677 92.4779 218.172 106.637Z" fill="black"/>
<path d="M26.5032 90.9563C33.9609 77.7256 48.0021 71.5067 57.865 77.0661C67.7279 82.6255 49.9575 86.7692 42.4998 100C35.0421 113.231 40.7211 130.538 30.8582 124.979C20.9953 119.419 19.0455 104.187 26.5032 90.9563Z" fill="black"/>
<ellipse cx="64.5" cy="147" rx="17.5" ry="17" fill="#FFE4E2"/>
<path d="M83.4722 146.329C82.5421 153.269 75.3469 166.261 54.0072 162.709" stroke="black" stroke-width="3" stroke-linecap="round"/>
</g>
<defs>
<clipPath id="clip0_44_899">
<rect width="243" height="248" fill="white"/>
</clipPath>
</defs>
</svg>
