<svg width="243" height="248" viewBox="0 0 243 248" fill="none" xmlns="http://www.w3.org/2000/svg">
<g clip-path="url(#clip0_44_1076)">
<path fill-rule="evenodd" clip-rule="evenodd" d="M49.2321 117.683C54.5569 104.619 62.8045 92.9492 73.2079 83.4073C69.1552 77.3825 64.4584 69.7894 59.5839 61.9089C44.7222 37.8823 28.2079 11.1841 23.254 18.1147C17.0702 26.7658 35.033 85.7255 49.2321 117.683Z" fill="black"/>
<path d="M82.4674 169.794C82.4674 175.818 80.9918 181.155 78.7314 184.908C76.4432 188.706 73.6123 190.522 70.931 190.522C68.2497 190.522 65.4188 188.706 63.1306 184.908C60.8702 181.155 59.3946 175.818 59.3946 169.794C59.3946 163.771 60.8702 158.433 63.1306 154.681C65.4188 150.882 68.2497 149.066 70.931 149.066C73.6123 149.066 76.4432 150.882 78.7314 154.681C80.9918 158.433 82.4674 163.771 82.4674 169.794Z" fill="white" stroke="black" stroke-width="4.77745"/>
<path d="M119.087 169.794C119.087 175.818 117.611 181.155 115.351 184.908C113.062 188.706 110.231 190.522 107.55 190.522C104.869 190.522 102.038 188.706 99.7497 184.908C97.4893 181.155 96.0137 175.818 96.0137 169.794C96.0137 163.771 97.4893 158.433 99.7497 154.681C102.038 150.882 104.869 149.066 107.55 149.066C110.231 149.066 113.062 150.882 115.351 154.681C117.611 158.433 119.087 163.771 119.087 169.794Z" fill="white" stroke="black" stroke-width="4.77745"/>
<path fill-rule="evenodd" clip-rule="evenodd" d="M76.1623 186.453C79.8245 186.453 82.7933 178.978 82.7933 169.758C82.7933 160.537 79.8245 153.062 76.1623 153.062C72.5001 153.062 69.5312 160.537 69.5312 169.758C69.5312 169.909 69.532 170.059 69.5336 170.209L73.3723 171.01L69.8549 174.925C70.7191 181.616 73.2163 186.453 76.1623 186.453Z" fill="black"/>
<path fill-rule="evenodd" clip-rule="evenodd" d="M112.633 186.453C116.295 186.453 119.264 178.978 119.264 169.758C119.264 160.537 116.295 153.062 112.633 153.062C108.971 153.062 106.002 160.537 106.002 169.758C106.002 169.908 106.003 170.059 106.004 170.208L109.848 171.01L106.326 174.929C107.191 181.618 109.688 186.453 112.633 186.453Z" fill="black"/>
<path d="M94.1414 191.88C90.9795 190.887 70.0599 184.978 69.7923 198.02C69.4765 213.412 91.3365 211.103 93.3466 204.757" stroke="black" stroke-width="5.73294" stroke-linecap="round"/>
<path d="M110.319 220.137C110.319 221.047 109.826 222.064 108.643 222.939C107.461 223.814 105.715 224.427 103.682 224.427C101.649 224.427 99.9026 223.814 98.7206 222.939C97.5381 222.064 97.045 221.047 97.045 220.137C97.045 219.228 97.5381 218.21 98.7206 217.335C99.9026 216.461 101.649 215.848 103.682 215.848C105.715 215.848 107.461 216.461 108.643 217.335C109.826 218.21 110.319 219.228 110.319 220.137Z" stroke="black" stroke-width="4.77745"/>
<mask id="path-8-inside-1_44_1076" fill="white">
<path fill-rule="evenodd" clip-rule="evenodd" d="M218.041 180.807C205.352 219.668 167.378 247.877 122.506 247.877C67.2472 247.877 22.4512 205.099 22.4512 152.328C22.4512 99.5581 67.2472 56.7793 122.506 56.7793C171.064 56.7793 211.543 89.8126 220.646 133.631C237.248 134.507 250.195 140.674 238.934 158.883C228.974 171.508 222.778 177.885 218.041 180.807Z"/>
</mask>
<path fill-rule="evenodd" clip-rule="evenodd" d="M218.041 180.807C205.352 219.668 167.378 247.877 122.506 247.877C67.2472 247.877 22.4512 205.099 22.4512 152.328C22.4512 99.5581 67.2472 56.7793 122.506 56.7793C171.064 56.7793 211.543 89.8126 220.646 133.631C237.248 134.507 250.195 140.674 238.934 158.883C228.974 171.508 222.778 177.885 218.041 180.807Z" fill="#FFE4E2"/>
<path d="M218.041 180.807L216.466 178.254L215.53 178.831L215.189 179.876L218.041 180.807ZM220.646 133.631L217.709 134.241L218.179 136.505L220.488 136.627L220.646 133.631ZM238.934 158.883L241.289 160.741L241.395 160.607L241.485 160.461L238.934 158.883ZM215.189 179.876C202.915 217.467 166.119 244.877 122.506 244.877V250.877C168.638 250.877 207.789 221.87 220.893 181.738L215.189 179.876ZM122.506 244.877C68.7723 244.877 25.4512 203.313 25.4512 152.328H19.4512C19.4512 206.884 65.7221 250.877 122.506 250.877V244.877ZM25.4512 152.328C25.4512 101.344 68.7723 59.7793 122.506 59.7793V53.7793C65.7221 53.7793 19.4512 97.7724 19.4512 152.328H25.4512ZM122.506 59.7793C169.708 59.7793 208.908 91.8784 217.709 134.241L223.583 133.021C214.178 87.7468 172.42 53.7793 122.506 53.7793V59.7793ZM241.485 160.461C244.45 155.667 246.024 151.353 246.16 147.484C246.3 143.49 244.894 140.185 242.366 137.642C239.924 135.186 236.572 133.57 232.933 132.506C229.268 131.435 225.1 130.862 220.804 130.635L220.488 136.627C224.493 136.838 228.169 137.365 231.249 138.265C234.355 139.173 236.649 140.401 238.111 141.872C239.487 143.257 240.245 144.962 240.164 147.274C240.078 149.71 239.048 152.994 236.382 157.305L241.485 160.461ZM219.616 183.36C224.864 180.122 231.356 173.332 241.289 160.741L236.578 157.025C226.591 169.684 220.691 175.647 216.466 178.254L219.616 183.36Z" fill="black" mask="url(#path-8-inside-1_44_1076)"/>
<path d="M83.3561 166.969C83.3561 173.052 81.851 178.488 79.4965 182.353C77.1259 186.245 74.0537 188.329 70.931 188.329C67.8083 188.329 64.7361 186.245 62.3655 182.353C60.011 178.488 58.5059 173.052 58.5059 166.969C58.5059 160.886 60.011 155.45 62.3655 151.585C64.7361 147.693 67.8083 145.609 70.931 145.609C74.0537 145.609 77.1259 147.693 79.4965 151.585C81.851 155.45 83.3561 160.886 83.3561 166.969Z" fill="white" stroke="black" stroke-width="3"/>
<path d="M119.975 166.969C119.975 173.052 118.47 178.488 116.116 182.353C113.745 186.245 110.673 188.329 107.55 188.329C104.427 188.329 101.355 186.245 98.9846 182.353C96.6301 178.488 95.125 173.052 95.125 166.969C95.125 160.886 96.6301 155.45 98.9846 151.585C101.355 147.693 104.427 145.609 107.55 145.609C110.673 145.609 113.745 147.693 116.116 151.585C118.47 155.45 119.975 160.886 119.975 166.969Z" fill="white" stroke="black" stroke-width="3"/>
<path fill-rule="evenodd" clip-rule="evenodd" d="M76.1623 183.517C79.8245 183.517 82.7933 176.043 82.7933 166.822C82.7933 157.601 79.8245 150.127 76.1623 150.127C72.5001 150.127 69.5312 157.601 69.5312 166.822C69.5312 166.973 69.532 167.124 69.5336 167.274L73.3723 168.075L69.8549 171.989C70.7191 178.681 73.2163 183.517 76.1623 183.517Z" fill="black"/>
<path fill-rule="evenodd" clip-rule="evenodd" d="M112.633 183.517C116.295 183.517 119.264 176.043 119.264 166.822C119.264 157.601 116.295 150.127 112.633 150.127C108.971 150.127 106.002 157.601 106.002 166.822C106.002 166.973 106.003 167.123 106.004 167.273L109.848 168.075L106.326 171.994C107.191 178.683 109.688 183.517 112.633 183.517Z" fill="black"/>
<path d="M93.599 187.3C90.8427 186.434 72.607 181.284 72.3737 192.652C72.0985 206.069 91.1539 204.057 92.9062 198.525" stroke="black" stroke-width="3" stroke-linecap="round"/>
<path d="M111.207 217.055C111.207 218.312 110.522 219.572 109.172 220.571C107.822 221.57 105.886 222.233 103.682 222.233C101.478 222.233 99.5419 221.57 98.192 220.571C96.8417 219.572 96.1562 218.312 96.1562 217.055C96.1562 215.798 96.8417 214.538 98.192 213.539C99.5419 212.54 101.478 211.877 103.682 211.877C105.886 211.877 107.822 212.54 109.172 213.539C110.522 214.538 111.207 215.798 111.207 217.055Z" stroke="black" stroke-width="3"/>
<ellipse cx="64.9512" cy="146.779" rx="17.5" ry="17" fill="#FFE4E2"/>
<ellipse cx="111.951" cy="146.779" rx="17.5" ry="17" fill="#FFE4E2"/>
<path d="M83.9234 146.108C82.9933 153.048 75.7981 166.04 54.4583 162.488" stroke="black" stroke-width="3" stroke-linecap="round"/>
<path d="M93.4516 146.108C94.3817 153.048 101.577 166.04 122.917 162.488" stroke="black" stroke-width="3" stroke-linecap="round"/>
<path d="M168.643 126.319C176.833 137.776 192.942 140.295 204.624 131.945C216.306 123.595 250.468 23.8977 242.279 12.4404C234.089 0.983153 194.307 81.4292 182.625 89.7794C170.943 98.1296 160.454 114.862 168.643 126.319Z" fill="black"/>
</g>
<defs>
<clipPath id="clip0_44_1076">
<rect width="243" height="248" fill="white"/>
</clipPath>
</defs>
</svg>
