<svg width="243" height="248" viewBox="0 0 243 248" fill="none" xmlns="http://www.w3.org/2000/svg">
<g clip-path="url(#clip0_66_1011)">
<path d="M86.116 170.96C86.116 177.094 84.6263 182.585 82.2844 186.5C79.9269 190.441 76.8486 192.588 73.6909 192.588C70.5331 192.588 67.4548 190.441 65.0974 186.5C62.7555 182.585 61.2658 177.094 61.2658 170.96C61.2658 164.827 62.7555 159.336 65.0974 155.421C67.4548 151.48 70.5331 149.333 73.6909 149.333C76.8486 149.333 79.9269 151.48 82.2844 155.421C84.6263 159.336 86.116 164.827 86.116 170.96Z" fill="white" stroke="black" stroke-width="2.54713"/>
<path d="M122.139 170.96C122.139 177.094 120.65 182.585 118.308 186.5C115.95 190.441 112.872 192.588 109.714 192.588C106.557 192.588 103.478 190.441 101.121 186.5C98.7789 182.585 97.2892 177.094 97.2892 170.96C97.2892 164.827 98.7789 159.336 101.121 155.421C103.478 151.48 106.557 149.333 109.714 149.333C112.872 149.333 115.95 151.48 118.308 155.421C120.65 159.336 122.139 164.827 122.139 170.96Z" fill="white" stroke="black" stroke-width="2.54713"/>
<path fill-rule="evenodd" clip-rule="evenodd" d="M78.8376 187.464C82.4403 187.464 85.3608 180.059 85.3608 170.924C85.3608 161.789 82.4403 154.384 78.8376 154.384C75.235 154.384 72.3145 161.789 72.3145 170.924C72.3145 171.074 72.3152 171.223 72.3168 171.372L76.0929 172.165L72.6329 176.043C73.483 182.672 75.9396 187.464 78.8376 187.464Z" fill="black"/>
<path fill-rule="evenodd" clip-rule="evenodd" d="M114.715 187.464C118.317 187.464 121.238 180.059 121.238 170.924C121.238 161.789 118.317 154.384 114.715 154.384C111.112 154.384 108.191 161.789 108.191 170.924C108.191 171.073 108.192 171.222 108.194 171.371L111.975 172.165L108.51 176.048C109.361 182.674 111.817 187.464 114.715 187.464Z" fill="black"/>
<path d="M96.5242 192.841C93.4137 191.856 72.8344 186.003 72.5711 198.923C72.2604 214.171 93.7649 211.884 95.7424 205.597" stroke="black" stroke-width="3.05655" stroke-linecap="round"/>
<path d="M113.515 220.834C113.515 222.166 112.793 223.473 111.427 224.49C110.061 225.508 108.115 226.176 105.91 226.176C103.705 226.176 101.759 225.508 100.393 224.49C99.0268 223.473 98.3048 222.166 98.3048 220.834C98.3048 219.501 99.0268 218.195 100.393 217.177C101.759 216.159 103.705 215.491 105.91 215.491C108.115 215.491 110.061 216.159 111.427 217.177C112.793 218.195 113.515 219.501 113.515 220.834Z" stroke="black" stroke-width="2.54713"/>
<mask id="path-7-inside-1_66_1011" fill="white">
<path fill-rule="evenodd" clip-rule="evenodd" d="M218.409 181.87C205.926 220.369 168.57 248.315 124.428 248.315C70.0676 248.315 26 205.935 26 153.657C26 101.38 70.0676 59 124.428 59C172.196 59 212.017 91.7251 220.972 135.135C237.304 136.003 250.04 142.111 238.962 160.151C229.164 172.658 223.069 178.975 218.409 181.87Z"/>
</mask>
<path fill-rule="evenodd" clip-rule="evenodd" d="M218.409 181.87C205.926 220.369 168.57 248.315 124.428 248.315C70.0676 248.315 26 205.935 26 153.657C26 101.38 70.0676 59 124.428 59C172.196 59 212.017 91.7251 220.972 135.135C237.304 136.003 250.04 142.111 238.962 160.151C229.164 172.658 223.069 178.975 218.409 181.87Z" fill="#FFE4E2"/>
<path d="M218.409 181.87L216.826 179.322L215.894 179.901L215.555 180.945L218.409 181.87ZM220.972 135.135L218.034 135.741L218.501 138.008L220.812 138.131L220.972 135.135ZM238.962 160.151L241.323 162.001L241.429 161.867L241.518 161.721L238.962 160.151ZM215.555 180.945C203.482 218.181 167.297 245.315 124.428 245.315V251.315C169.844 251.315 208.371 222.557 221.263 182.796L215.555 180.945ZM124.428 245.315C71.6129 245.315 29 204.169 29 153.657H23C23 207.701 68.5222 251.315 124.428 251.315V245.315ZM29 153.657C29 103.146 71.6129 62 124.428 62V56C68.5222 56 23 99.6134 23 153.657H29ZM124.428 62C170.825 62 209.377 93.7752 218.034 135.741L223.91 134.529C214.657 89.675 173.568 56 124.428 56V62ZM241.518 161.721C244.436 156.969 245.986 152.693 246.119 148.858C246.257 144.901 244.874 141.622 242.381 139.096C239.971 136.656 236.664 135.051 233.078 133.995C229.466 132.932 225.361 132.364 221.131 132.139L220.812 138.131C224.749 138.34 228.36 138.861 231.384 139.751C234.432 140.648 236.679 141.861 238.111 143.311C239.458 144.676 240.203 146.36 240.123 148.65C240.039 151.061 239.026 154.313 236.405 158.581L241.518 161.721ZM219.993 184.418C225.163 181.206 231.553 174.473 241.323 162.001L236.6 158.301C226.775 170.843 220.974 176.744 216.826 179.322L219.993 184.418Z" fill="black" mask="url(#path-7-inside-1_66_1011)"/>
<path d="M85.8896 168.161C85.8896 174.188 84.4089 179.571 82.0939 183.399C79.7618 187.254 76.7458 189.308 73.6909 189.308C70.6359 189.308 67.6199 187.254 65.2879 183.399C62.9728 179.571 61.4922 174.188 61.4922 168.161C61.4922 162.135 62.9728 156.752 65.2879 152.924C67.6199 149.069 70.6359 147.015 73.6909 147.015C76.7458 147.015 79.7618 149.069 82.0939 152.924C84.4089 156.752 85.8896 162.135 85.8896 168.161Z" fill="white" stroke="black" stroke-width="3"/>
<path d="M121.913 168.161C121.913 174.188 120.432 179.571 118.117 183.399C115.785 187.254 112.769 189.308 109.714 189.308C106.659 189.308 103.643 187.254 101.311 183.399C98.9963 179.571 97.5156 174.188 97.5156 168.161C97.5156 162.135 98.9963 156.752 101.311 152.924C103.643 149.069 106.659 147.015 109.714 147.015C112.769 147.015 115.785 149.069 118.117 152.924C120.432 156.752 121.913 162.135 121.913 168.161Z" fill="white" stroke="black" stroke-width="3"/>
<path fill-rule="evenodd" clip-rule="evenodd" d="M78.8376 184.556C82.4403 184.556 85.3608 177.151 85.3608 168.016C85.3608 158.881 82.4403 151.476 78.8376 151.476C75.235 151.476 72.3145 158.881 72.3145 168.016C72.3145 168.166 72.3152 168.315 72.3168 168.464L76.0929 169.257L72.6329 173.135C73.483 179.764 75.9396 184.556 78.8376 184.556Z" fill="black"/>
<path fill-rule="evenodd" clip-rule="evenodd" d="M114.715 184.556C118.317 184.556 121.238 177.151 121.238 168.016C121.238 158.881 118.317 151.476 114.715 151.476C111.112 151.476 108.191 158.881 108.191 168.016C108.191 168.165 108.192 168.314 108.194 168.463L111.975 169.257L108.51 173.14C109.361 179.766 111.817 184.556 114.715 184.556Z" fill="black"/>
<path d="M95.992 188.303C93.2805 187.445 75.3414 182.342 75.1119 193.605C74.8411 206.897 93.5866 204.903 95.3104 199.423" stroke="black" stroke-width="3" stroke-linecap="round"/>
<path d="M113.289 217.78C113.289 219.025 112.615 220.27 111.292 221.256C109.969 222.242 108.071 222.896 105.91 222.896C103.749 222.896 101.851 222.242 100.528 221.256C99.2049 220.27 98.5312 219.025 98.5312 217.78C98.5312 216.536 99.2049 215.291 100.528 214.305C101.851 213.319 103.749 212.664 105.91 212.664C108.071 212.664 109.969 213.319 111.292 214.305C112.615 215.291 113.289 216.536 113.289 217.78Z" stroke="black" stroke-width="3"/>
<ellipse cx="142.848" cy="39.1677" rx="8.5" ry="38.6134" transform="rotate(27.5424 142.848 39.1677)" fill="black"/>
</g>
<defs>
<clipPath id="clip0_66_1011">
<rect width="243" height="248" fill="white"/>
</clipPath>
</defs>
</svg>
