<svg width="243" height="248" viewBox="0 0 243 248" fill="none" xmlns="http://www.w3.org/2000/svg">
<g clip-path="url(#clip0_66_1012)">
<path d="M86.116 170.96C86.116 177.094 84.6263 182.585 82.2844 186.5C79.9269 190.441 76.8486 192.588 73.6909 192.588C70.5331 192.588 67.4548 190.441 65.0974 186.5C62.7555 182.585 61.2658 177.094 61.2658 170.96C61.2658 164.827 62.7555 159.336 65.0974 155.421C67.4548 151.48 70.5331 149.333 73.6909 149.333C76.8486 149.333 79.9269 151.48 82.2844 155.421C84.6263 159.336 86.116 164.827 86.116 170.96Z" fill="white" stroke="black" stroke-width="2.54713"/>
<path d="M122.139 170.96C122.139 177.094 120.65 182.585 118.308 186.5C115.95 190.441 112.872 192.588 109.714 192.588C106.557 192.588 103.478 190.441 101.121 186.5C98.7789 182.585 97.2892 177.094 97.2892 170.96C97.2892 164.827 98.7789 159.336 101.121 155.421C103.478 151.48 106.557 149.333 109.714 149.333C112.872 149.333 115.95 151.48 118.308 155.421C120.65 159.336 122.139 164.827 122.139 170.96Z" fill="white" stroke="black" stroke-width="2.54713"/>
<path fill-rule="evenodd" clip-rule="evenodd" d="M78.8376 187.464C82.4403 187.464 85.3608 180.059 85.3608 170.924C85.3608 161.789 82.4403 154.384 78.8376 154.384C75.235 154.384 72.3145 161.789 72.3145 170.924C72.3145 171.074 72.3152 171.223 72.3168 171.372L76.0929 172.165L72.6329 176.043C73.483 182.672 75.9396 187.464 78.8376 187.464Z" fill="black"/>
<path fill-rule="evenodd" clip-rule="evenodd" d="M114.715 187.464C118.317 187.464 121.238 180.059 121.238 170.924C121.238 161.789 118.317 154.384 114.715 154.384C111.112 154.384 108.191 161.789 108.191 170.924C108.191 171.073 108.192 171.222 108.194 171.371L111.975 172.165L108.51 176.048C109.361 182.674 111.817 187.464 114.715 187.464Z" fill="black"/>
<path d="M96.5242 192.841C93.4137 191.856 72.8344 186.003 72.5711 198.923C72.2604 214.171 93.7649 211.884 95.7424 205.597" stroke="black" stroke-width="3.05655" stroke-linecap="round"/>
<path d="M113.515 220.834C113.515 222.166 112.793 223.473 111.427 224.49C110.061 225.508 108.115 226.176 105.91 226.176C103.705 226.176 101.759 225.508 100.393 224.49C99.0268 223.473 98.3048 222.166 98.3048 220.834C98.3048 219.501 99.0268 218.195 100.393 217.177C101.759 216.159 103.705 215.491 105.91 215.491C108.115 215.491 110.061 216.159 111.427 217.177C112.793 218.195 113.515 219.501 113.515 220.834Z" stroke="black" stroke-width="2.54713"/>
<mask id="path-7-inside-1_66_1012" fill="white">
<path fill-rule="evenodd" clip-rule="evenodd" d="M218.409 181.87C205.926 220.369 168.571 248.315 124.428 248.315C70.0676 248.315 26 205.935 26 153.657C26 101.38 70.0676 59 124.428 59C172.196 59 212.017 91.7251 220.972 135.135C237.304 136.003 250.04 142.112 238.962 160.151C229.164 172.658 223.069 178.975 218.409 181.87Z"/>
</mask>
<path fill-rule="evenodd" clip-rule="evenodd" d="M218.409 181.87C205.926 220.369 168.571 248.315 124.428 248.315C70.0676 248.315 26 205.935 26 153.657C26 101.38 70.0676 59 124.428 59C172.196 59 212.017 91.7251 220.972 135.135C237.304 136.003 250.04 142.112 238.962 160.151C229.164 172.658 223.069 178.975 218.409 181.87Z" fill="#FFE4E2"/>
<path d="M218.409 181.87L216.826 179.322L215.894 179.901L215.556 180.945L218.409 181.87ZM220.972 135.135L218.034 135.741L218.501 138.008L220.812 138.131L220.972 135.135ZM238.962 160.151L241.323 162.001L241.429 161.867L241.518 161.721L238.962 160.151ZM215.556 180.945C203.482 218.181 167.297 245.315 124.428 245.315V251.315C169.844 251.315 208.371 222.557 221.263 182.795L215.556 180.945ZM124.428 245.315C71.6129 245.315 29 204.169 29 153.657H23C23 207.701 68.5222 251.315 124.428 251.315V245.315ZM29 153.657C29 103.146 71.6129 62 124.428 62V56C68.5222 56 23 99.6134 23 153.657H29ZM124.428 62C170.825 62 209.377 93.7752 218.034 135.741L223.91 134.529C214.657 89.6749 173.568 56 124.428 56V62ZM241.518 161.721C244.436 156.969 245.986 152.693 246.119 148.858C246.257 144.901 244.874 141.622 242.381 139.096C239.971 136.656 236.664 135.051 233.078 133.995C229.466 132.932 225.361 132.364 221.131 132.139L220.812 138.131C224.749 138.34 228.36 138.861 231.383 139.751C234.432 140.648 236.679 141.861 238.111 143.311C239.458 144.676 240.202 146.36 240.123 148.65C240.039 151.061 239.026 154.313 236.405 158.581L241.518 161.721ZM219.993 184.418C225.163 181.205 231.553 174.473 241.323 162.001L236.6 158.301C226.775 170.843 220.974 176.744 216.826 179.322L219.993 184.418Z" fill="black" mask="url(#path-7-inside-1_66_1012)"/>
<path d="M85.8896 168.161C85.8896 174.188 84.4089 179.571 82.0939 183.399C79.7618 187.254 76.7458 189.308 73.6909 189.308C70.6359 189.308 67.6199 187.254 65.2879 183.399C62.9728 179.571 61.4922 174.188 61.4922 168.161C61.4922 162.135 62.9728 156.752 65.2879 152.924C67.6199 149.069 70.6359 147.015 73.6909 147.015C76.7458 147.015 79.7618 149.069 82.0939 152.924C84.4089 156.752 85.8896 162.135 85.8896 168.161Z" fill="white" stroke="black" stroke-width="3"/>
<path d="M121.913 168.161C121.913 174.188 120.432 179.571 118.117 183.399C115.785 187.254 112.769 189.308 109.714 189.308C106.659 189.308 103.643 187.254 101.311 183.399C98.9963 179.571 97.5156 174.188 97.5156 168.161C97.5156 162.135 98.9963 156.752 101.311 152.924C103.643 149.069 106.659 147.015 109.714 147.015C112.769 147.015 115.785 149.069 118.117 152.924C120.432 156.752 121.913 162.135 121.913 168.161Z" fill="white" stroke="black" stroke-width="3"/>
<path fill-rule="evenodd" clip-rule="evenodd" d="M78.8376 184.556C82.4403 184.556 85.3608 177.151 85.3608 168.016C85.3608 158.881 82.4403 151.476 78.8376 151.476C75.235 151.476 72.3145 158.881 72.3145 168.016C72.3145 168.166 72.3152 168.315 72.3168 168.464L76.0929 169.257L72.6329 173.135C73.483 179.764 75.9396 184.556 78.8376 184.556Z" fill="black"/>
<path fill-rule="evenodd" clip-rule="evenodd" d="M114.715 184.556C118.317 184.556 121.238 177.151 121.238 168.016C121.238 158.881 118.317 151.476 114.715 151.476C111.112 151.476 108.191 158.881 108.191 168.016C108.191 168.165 108.192 168.314 108.194 168.463L111.975 169.257L108.51 173.14C109.361 179.766 111.817 184.556 114.715 184.556Z" fill="black"/>
<path d="M95.992 188.303C93.2805 187.445 75.3414 182.342 75.1119 193.605C74.8411 206.897 93.5866 204.903 95.3104 199.423" stroke="black" stroke-width="3" stroke-linecap="round"/>
<path fill-rule="evenodd" clip-rule="evenodd" d="M130.682 129.279C130.292 129.317 130.261 132.485 130.545 137.067C129.817 136.607 129.034 136.12 128.194 135.62C127.57 130.892 126.905 127.639 126.506 127.678C126.143 127.714 126.092 130.462 126.315 134.539C125.877 134.295 125.425 134.05 124.959 133.806C124.382 129.687 123.789 126.939 123.423 126.975C123.088 127.008 123.018 129.348 123.185 132.91C122.091 132.38 120.93 131.859 119.698 131.36C119.119 127.212 118.523 124.441 118.154 124.477C117.811 124.51 117.747 126.967 117.929 130.678C117.158 130.396 116.36 130.123 115.537 129.864C114.953 125.657 114.35 122.84 113.978 122.876C113.628 122.91 113.568 125.482 113.766 129.338C113.328 129.216 112.882 129.097 112.429 128.983C111.853 124.875 111.261 122.137 110.895 122.173C110.546 122.207 110.485 124.75 110.68 128.571C110.242 128.476 109.798 128.384 109.348 128.297C108.771 124.18 108.179 121.434 107.812 121.47C107.46 121.504 107.401 124.1 107.603 127.987C107.172 127.917 106.735 127.851 106.293 127.79C105.707 123.564 105.101 120.73 104.729 120.767C104.368 120.802 104.315 123.526 104.535 127.573C103.785 127.491 103.02 127.422 102.239 127.367C101.646 123.04 101.028 120.124 100.651 120.161C100.281 120.198 100.234 123.056 100.473 127.267C100.064 127.25 99.6499 127.236 99.2321 127.226C98.6157 122.592 97.9614 119.42 97.5674 119.458C97.1788 119.496 97.1474 122.647 97.4284 127.208C97.0175 127.21 96.6104 127.215 96.207 127.224C95.6022 122.751 94.9673 119.713 94.5817 119.751C94.1991 119.788 94.1627 122.842 94.4299 127.29C94.016 127.311 93.6063 127.336 93.2006 127.365C92.6021 122.974 91.9772 120.006 91.5959 120.043C91.2153 120.08 91.1774 123.104 91.4402 127.515C91.0129 127.558 90.5904 127.605 90.1726 127.656C89.6182 123.819 89.0593 121.296 88.7076 121.33C88.354 121.365 88.2962 123.977 88.5004 127.884C88.0477 127.953 87.6007 128.026 87.1595 128.103C86.6472 124.742 86.1446 122.586 85.8193 122.618C85.4894 122.65 85.417 124.926 85.5746 128.404C85.1163 128.497 84.6646 128.595 84.2194 128.698C83.6915 125.165 83.1685 122.877 82.8336 122.91C82.4913 122.944 82.4261 125.392 82.6076 129.093C81.8118 129.301 81.0381 129.521 80.2859 129.752C79.7751 126.407 79.2744 124.263 78.95 124.295C78.6145 124.328 78.5453 126.681 78.7136 130.26C77.9155 130.53 77.1435 130.812 76.397 131.101C75.888 127.777 75.3897 125.648 75.0665 125.68C74.7282 125.713 74.6606 128.105 74.8342 131.733C74.0431 132.066 73.283 132.406 72.5532 132.748C72.0305 129.274 71.5145 127.032 71.1829 127.065C70.8324 127.099 70.7725 129.666 70.9705 133.518C70.1928 133.908 69.4533 134.298 68.7507 134.682C68.2009 130.897 67.6481 128.416 67.2993 128.45C66.9283 128.486 66.8829 131.361 67.1243 135.592C66.3428 136.04 65.6143 136.47 64.9367 136.872C64.3961 133.194 63.8561 130.796 63.5132 130.83C63.1466 130.866 63.0979 133.672 63.3297 137.821C59.0377 140.326 57.3233 140.855 57.3931 135.205C57.5603 121.676 70.1824 95.3605 101.384 95.746C132.586 96.1316 139.054 122.683 138.887 136.213C138.844 139.701 138.212 140.818 136.763 140.548C136.082 134.903 135.303 130.836 134.857 130.88C134.439 130.921 134.435 134.577 134.79 139.718C134.124 139.346 133.367 138.87 132.511 138.323C131.849 133.006 131.111 129.237 130.682 129.279Z" fill="black"/>
<path d="M103.5 225.078C103.5 225.147 103.482 225.178 103.456 225.207C103.418 225.247 103.337 225.304 103.176 225.358C102.846 225.466 102.342 225.508 101.706 225.499C101.085 225.49 100.393 225.435 99.7027 225.38L99.6937 225.38C99.0109 225.326 98.3242 225.271 97.7513 225.271C97.3497 225.271 97.1162 225.13 96.952 224.92C96.7673 224.685 96.6407 224.322 96.5702 223.847C96.5008 223.379 96.4928 222.854 96.5044 222.336C96.5091 222.129 96.5174 221.913 96.5255 221.703C96.5365 221.417 96.5471 221.142 96.5471 220.922C96.5471 220.794 96.5714 220.728 96.5896 220.695C96.6058 220.666 96.6311 220.637 96.6849 220.608C96.8178 220.537 97.0667 220.492 97.4853 220.501C97.8437 220.509 98.2553 220.552 98.7203 220.6C98.7805 220.606 98.8417 220.613 98.9037 220.619C99.4329 220.674 100.014 220.729 100.592 220.729C101.413 220.729 102.135 221.355 102.684 222.326C103.225 223.282 103.5 224.411 103.5 225.078Z" fill="white" stroke="black"/>
<path d="M110.5 225.078C110.5 225.165 110.478 225.205 110.456 225.232C110.428 225.266 110.367 225.316 110.239 225.365C109.971 225.466 109.548 225.508 108.995 225.499C108.455 225.49 107.853 225.436 107.248 225.381L107.243 225.38L107.241 225.38C106.646 225.326 106.04 225.271 105.532 225.271C105.227 225.271 105.044 225.154 104.901 224.946C104.738 224.708 104.625 224.338 104.562 223.856C104.473 223.167 104.499 222.41 104.522 221.731C104.532 221.443 104.541 221.17 104.541 220.922C104.541 220.666 104.615 220.617 104.654 220.594C104.746 220.537 104.937 220.492 105.297 220.501C105.604 220.508 105.959 220.551 106.367 220.599C106.419 220.606 106.473 220.612 106.527 220.618C106.99 220.673 107.505 220.729 108.018 220.729C108.668 220.729 109.289 221.306 109.781 222.301C110.256 223.261 110.5 224.398 110.5 225.078Z" fill="white" stroke="black"/>
<path d="M80 213.5C91 219.833 116.8 227.4 132 207" stroke="black" stroke-width="3" stroke-linecap="round"/>
<path d="M46 144H157V160L91 169L46 160V144Z" fill="#FFE4E2"/>
</g>
<defs>
<clipPath id="clip0_66_1012">
<rect width="243" height="248" fill="white"/>
</clipPath>
</defs>
</svg>
