<svg width="239" height="437" viewBox="0 0 239 437" fill="none" xmlns="http://www.w3.org/2000/svg">
<g opacity="0.1" filter="url(#filter0_f_1_411)">
<path d="M36.3213 172.266C44.5598 162.036 54.4579 154.828 63.7398 151.4C73.0534 147.961 81.4843 148.401 87.1598 152.972C92.8354 157.542 95.062 165.686 93.6873 175.518C92.3171 185.318 87.3843 196.525 79.1457 206.755C70.9071 216.985 61.0091 224.193 51.7271 227.621C42.4135 231.06 33.9827 230.62 28.3072 226.049C22.6316 221.479 20.4049 213.335 21.7797 203.503C23.1498 193.703 28.0827 182.496 36.3213 172.266Z" fill="white" stroke="black" stroke-width="2.83889"/>
<path d="M-22.8921 124.579C-14.6535 114.35 -4.75549 107.141 4.52647 103.714C13.8401 100.274 22.2709 100.714 27.9464 105.285C33.622 109.856 35.8487 117.999 34.4739 127.832C33.1038 137.631 28.1709 148.838 19.9323 159.068C11.6938 169.298 1.79571 176.506 -7.48626 179.934C-16.7998 183.373 -25.2307 182.933 -30.9062 178.362C-36.5818 173.792 -38.8085 165.648 -37.4337 155.816C-36.0636 146.016 -31.1307 134.809 -22.8921 124.579Z" fill="white" stroke="black" stroke-width="2.83889"/>
<path fill-rule="evenodd" clip-rule="evenodd" d="M71.1217 155.57C65.1997 150.801 50.5961 159.107 38.5036 174.122C26.4111 189.138 21.409 205.176 27.331 209.946C33.253 214.715 47.8566 206.409 59.9491 191.393C60.1472 191.147 60.3433 190.901 60.5376 190.655L55.38 184.352L66.2022 182.557C73.5804 170.535 75.8854 159.407 71.1217 155.57Z" fill="black"/>
<path fill-rule="evenodd" clip-rule="evenodd" d="M12.1466 108.075C6.22461 103.306 -8.37901 111.612 -20.4715 126.627C-32.564 141.642 -37.5661 157.681 -31.6441 162.45C-25.7221 167.22 -11.1185 158.913 0.973975 143.898C1.17164 143.653 1.36741 143.407 1.56126 143.161L-3.60243 136.85L7.23203 135.054C14.6063 123.035 16.9093 111.911 12.1466 108.075Z" fill="black"/>
<path d="M49.1681 123.319C52.978 129.055 79.057 165.92 96.5937 145.031C117.29 120.377 78.914 95.6686 67.3399 103.386" stroke="black" stroke-width="3.40666" stroke-linecap="round"/>
<path d="M57.3088 54.0162C59.3817 51.4423 62.726 50.1507 66.6175 50.2972C70.5092 50.4436 74.8501 52.0372 78.6659 55.1102C82.4818 58.1833 84.964 62.0847 85.9367 65.8557C86.9093 69.6266 86.3603 73.1693 84.2874 75.7433C82.2145 78.3173 78.8702 79.6088 74.9786 79.4624C71.0869 79.3159 66.7461 77.7224 62.9303 74.6493C59.1144 71.5762 56.6322 67.6749 55.6595 63.9038C54.6869 60.1329 55.2358 56.5902 57.3088 54.0162Z" stroke="black" stroke-width="2.83889"/>
<mask id="path-7-inside-1_1_411" fill="white">
<path fill-rule="evenodd" clip-rule="evenodd" d="M-165.709 -20.0014C-94.2245 -66.7604 4.17593 -63.2455 76.7376 -4.80843C166.094 67.1542 182.429 195.154 113.223 281.088C44.0167 367.022 -84.5236 378.348 -173.88 306.385C-252.401 243.148 -274.536 136.64 -231.79 53.4292C-257.487 30.3818 -270.335 3.48034 -228.244 -11.5073C-195.583 -19.0955 -177.201 -21.4101 -165.709 -20.0014Z"/>
</mask>
<path fill-rule="evenodd" clip-rule="evenodd" d="M-165.709 -20.0014C-94.2245 -66.7604 4.17593 -63.2455 76.7376 -4.80843C166.094 67.1542 182.429 195.154 113.223 281.088C44.0167 367.022 -84.5236 378.348 -173.88 306.385C-252.401 243.148 -274.536 136.64 -231.79 53.4292C-257.487 30.3818 -270.335 3.48034 -228.244 -11.5073C-195.583 -19.0955 -177.201 -21.4101 -165.709 -20.0014Z" fill="#FFE4E2"/>
<path d="M-165.709 -20.0014L-166.123 -16.6201L-164.887 -16.4685L-163.844 -17.1505L-165.709 -20.0014ZM-231.79 53.4292L-228.759 54.9859L-227.558 52.648L-229.515 50.8931L-231.79 53.4292ZM-228.244 -11.5073L-229.015 -14.8256L-229.204 -14.7817L-229.387 -14.7166L-228.244 -11.5073ZM-163.844 -17.1505C-93.621 -63.0844 3.1652 -59.6854 74.6008 -2.15519L78.8744 -7.46167C5.18666 -66.8056 -94.828 -70.4364 -167.574 -22.8523L-163.844 -17.1505ZM74.6008 -2.15519C162.591 68.7067 178.518 194.58 110.57 278.951L115.876 283.225C186.34 195.729 169.597 65.6016 78.8744 -7.46167L74.6008 -2.15519ZM110.57 278.951C42.6215 363.323 -83.7536 374.594 -171.743 303.732L-176.017 309.038C-85.2937 382.101 45.412 370.721 115.876 283.225L110.57 278.951ZM-171.743 303.732C-249.052 241.472 -270.741 136.707 -228.759 54.9859L-234.82 51.8726C-278.332 136.573 -255.751 244.825 -176.017 309.038L-171.743 303.732ZM-229.387 -14.7166C-240.213 -10.8616 -247.905 -6.10823 -252.746 -0.506858C-257.679 5.19958 -259.502 11.62 -258.827 18.2819C-258.166 24.8078 -255.137 31.3504 -250.795 37.6092C-246.436 43.8925 -240.613 50.0921 -234.064 55.9653L-229.515 50.8931C-235.815 45.2426 -241.235 39.4368 -245.197 33.7256C-249.176 27.99 -251.546 22.5491 -252.048 17.5952C-252.536 12.7773 -251.285 8.22176 -247.592 3.94864C-243.807 -0.429527 -237.321 -4.65921 -227.101 -8.29803L-229.387 -14.7166ZM-165.294 -23.3828C-177.465 -24.8746 -196.403 -22.4023 -229.015 -14.8256L-227.473 -8.18902C-194.763 -15.7887 -176.938 -17.9456 -166.123 -16.6201L-165.294 -23.3828Z" fill="black" mask="url(#path-7-inside-1_1_411)"/>
<path d="M32.6158 176.867C40.7596 166.755 50.571 159.652 59.7896 156.3C69.0372 152.937 77.4358 153.415 83.1175 157.991C88.7991 162.567 91.0571 170.67 89.7426 180.422C88.4323 190.143 83.584 201.243 75.4402 211.356C67.2964 221.468 57.485 228.571 48.2664 231.923C39.0187 235.286 30.6202 234.808 24.9385 230.232C19.2568 225.656 16.9989 217.553 18.3133 207.801C19.6237 198.08 24.472 186.98 32.6158 176.867Z" fill="white" stroke="black" stroke-width="2.83889"/>
<path d="M-26.376 129.358C-18.2592 119.28 -8.48853 112.211 0.673717 108.879C9.87088 105.535 18.1521 106.036 23.7265 110.525C29.3009 115.014 31.5557 122.998 30.2484 132.697C28.9461 142.359 24.123 153.412 16.0062 163.491C7.88939 173.569 -1.88128 180.638 -11.0435 183.97C-20.2407 187.314 -28.5219 186.813 -34.0963 182.324C-39.6707 177.835 -41.9255 169.851 -40.6182 160.152C-39.3159 150.49 -34.4928 139.437 -26.376 129.358Z" fill="white" stroke="black" stroke-width="3.40666"/>
<path fill-rule="evenodd" clip-rule="evenodd" d="M67.2721 160.351C61.3501 155.581 46.7465 163.887 34.654 178.903C22.5615 193.918 17.5594 209.956 23.4814 214.726C29.4034 219.495 44.007 211.189 56.0995 196.174C56.2976 195.928 56.4938 195.681 56.688 195.435L51.5305 189.132L62.3527 187.337C69.7308 175.315 72.0358 164.187 67.2721 160.351Z" fill="black"/>
<path fill-rule="evenodd" clip-rule="evenodd" d="M8.29699 112.855C2.37499 108.086 -12.2286 116.392 -24.3211 131.407C-36.4136 146.423 -41.4157 162.461 -35.4937 167.23C-29.5717 172 -14.9681 163.694 -2.87564 148.678C-2.67796 148.433 -2.48217 148.187 -2.2883 147.941L-7.45199 141.63L3.38245 139.834C10.7567 127.815 13.0596 116.691 8.29699 112.855Z" fill="black"/>
<path d="M44.0361 131.483C47.3573 136.482 70.0905 168.618 85.3773 150.409C103.419 128.918 69.9658 107.379 59.8766 114.107" stroke="black" stroke-width="3.40666" stroke-linecap="round"/>
<path d="M53.2663 59.0354C55.3392 56.4615 58.6835 55.1699 62.5751 55.3164C66.4667 55.4628 70.8076 57.0564 74.6234 60.1294C78.4393 63.2025 80.9215 67.1039 81.8942 70.8749C82.8668 74.6458 82.3178 78.1885 80.2449 80.7625C78.172 83.3364 74.8277 84.628 70.9361 84.4815C67.0445 84.3351 62.7036 82.7415 58.8878 79.6685C55.0719 76.5954 52.5897 72.694 51.617 68.923C50.6444 65.1521 51.1934 61.6094 53.2663 59.0354Z" stroke="black" stroke-width="2.83889"/>
</g>
<defs>
<filter id="filter0_f_1_411" x="-373.6" y="-166.547" width="616.731" height="607.832" filterUnits="userSpaceOnUse" color-interpolation-filters="sRGB">
<feFlood flood-opacity="0" result="BackgroundImageFix"/>
<feBlend mode="normal" in="SourceGraphic" in2="BackgroundImageFix" result="shape"/>
<feGaussianBlur stdDeviation="2.3" result="effect1_foregroundBlur_1_411"/>
</filter>
</defs>
</svg>
