<svg width="1025" height="1025" viewBox="0 0 1025 1025" fill="none" xmlns="http://www.w3.org/2000/svg">
<rect x="0.0693359" y="0.787598" width="1024" height="1024" rx="150" fill="#FFC6C0"/>
<path d="M314.646 786.159C314.646 816.488 307.192 843.511 295.612 862.654C283.931 881.965 269.027 891.927 254.224 891.927C239.421 891.927 224.517 881.965 212.836 862.654C201.256 843.511 193.802 816.488 193.802 786.159C193.802 755.83 201.256 728.807 212.836 709.664C224.517 690.353 239.421 680.391 254.224 680.391C269.027 680.391 283.931 690.353 295.612 709.664C307.192 728.807 314.646 755.83 314.646 786.159Z" fill="white" stroke="black" stroke-width="18"/>
<path fill-rule="evenodd" clip-rule="evenodd" d="M276.961 851.923C295.218 851.923 310.019 814.396 310.019 768.104C310.019 721.812 295.218 684.285 276.961 684.285C258.703 684.285 243.902 721.812 243.902 768.104C243.902 768.861 243.906 769.616 243.914 770.368L263.051 774.388L245.515 794.041C249.823 827.638 262.273 851.923 276.961 851.923Z" fill="black"/>
<path d="M489.8 786.159C489.8 816.488 482.346 843.511 470.766 862.654C459.085 881.965 444.181 891.927 429.378 891.927C414.575 891.927 399.671 881.965 387.99 862.654C376.411 843.511 368.956 816.488 368.956 786.159C368.956 755.83 376.411 728.807 387.99 709.664C399.671 690.353 414.575 680.391 429.378 680.391C444.181 680.391 459.085 690.353 470.766 709.664C482.346 728.807 489.8 755.83 489.8 786.159Z" fill="white" stroke="black" stroke-width="18"/>
<path fill-rule="evenodd" clip-rule="evenodd" d="M452.115 851.923C470.372 851.923 485.173 814.396 485.173 768.104C485.173 721.812 470.372 684.285 452.115 684.285C433.857 684.285 419.057 721.812 419.057 768.104C419.057 768.861 419.061 769.616 419.068 770.369L438.205 774.388L420.67 794.042C424.978 827.638 437.428 851.923 452.115 851.923Z" fill="black"/>
<path d="M97.5078 619.952C230.465 426.305 651.319 324.452 926.63 619.952" stroke="black" stroke-width="16.136" stroke-linecap="round"/>
<path d="M165.707 466.11L156.205 472.971L117.914 419.944L127.417 413.082L165.707 466.11Z" fill="black"/>
<path d="M161.986 419.838L155.551 424.002L146.031 400.415L154.503 394.932L161.986 419.838Z" fill="black"/>
<path d="M172.304 401.88L182.034 396.777L185.905 404.159L186.443 403.877C186.032 400.894 186.498 398.162 187.841 395.678C189.202 393.185 191.325 391.182 194.21 389.669C197.113 388.146 199.954 387.558 202.732 387.904C205.519 388.221 207.98 389.407 210.115 391.46L210.568 391.223C210.263 388.258 210.89 385.465 212.448 382.844C214.016 380.195 216.355 378.054 219.466 376.422C222.144 375.018 224.802 374.357 227.442 374.439C230.09 374.492 232.564 375.335 234.862 376.966C237.179 378.588 239.169 380.983 240.83 384.15L256.124 413.31L245.914 418.665L231.436 391.061C230.526 389.326 229.434 388.048 228.161 387.225C226.897 386.373 225.561 385.956 224.151 385.974C222.742 385.992 221.321 386.376 219.888 387.128C218.248 387.988 217.017 389.079 216.195 390.4C215.373 391.72 214.982 393.175 215.022 394.765C215.053 396.336 215.493 397.932 216.344 399.554L230.585 426.705L220.601 431.942L205.9 403.913C205.129 402.443 204.14 401.314 202.934 400.528C201.738 399.713 200.425 399.296 198.996 399.276C197.557 399.237 196.121 399.594 194.688 400.345C193.218 401.117 192.067 402.201 191.237 403.598C190.426 404.985 190.023 406.555 190.029 408.307C190.024 410.04 190.482 411.784 191.401 413.537L205.272 439.982L195.09 445.322L172.304 401.88Z" fill="black"/>
<path d="M268.491 337.912L291.686 330.137C296.329 328.581 300.58 328.132 304.439 328.792C308.312 329.425 311.607 331.016 314.325 333.563C317.056 336.083 319.091 339.342 320.431 343.339C321.778 347.356 322.121 351.193 321.461 354.85C320.8 358.507 319.106 361.759 316.377 364.605C313.648 367.451 309.952 369.655 305.289 371.219L293.358 375.218L300.392 396.203L289.279 399.928L268.491 337.912ZM300.729 362.541C303.435 361.634 305.526 360.405 307.005 358.854C308.504 357.296 309.403 355.524 309.703 353.537C310.022 351.544 309.803 349.416 309.046 347.155C307.888 343.703 305.955 341.32 303.246 340.005C300.551 338.663 297.174 338.672 293.117 340.032L282.73 343.514L290.282 366.043L300.729 362.541Z" fill="black"/>
<path d="M330.771 317.913L354.611 312.423C359.383 311.324 363.658 311.29 367.435 312.321C371.228 313.327 374.353 315.229 376.811 318.028C379.285 320.801 380.995 324.241 381.941 328.35C382.892 332.479 382.861 336.331 381.849 339.907C380.837 343.483 378.835 346.555 375.844 349.122C372.852 351.69 368.959 353.526 364.167 354.63L351.904 357.453L356.871 379.021L345.449 381.652L330.771 317.913ZM360.47 345.551C363.25 344.911 365.451 343.89 367.074 342.49C368.716 341.085 369.783 339.408 370.274 337.46C370.786 335.507 370.774 333.368 370.239 331.044C369.422 327.496 367.729 324.937 365.16 323.365C362.608 321.768 359.246 321.45 355.076 322.41L344.401 324.868L349.733 348.023L360.47 345.551Z" fill="black"/>
<path d="M395.221 369.949L409.818 302.15L424.201 300.315L455.351 362.279L442.9 363.867L435.466 348.492L411.04 351.608L407.703 368.357L395.221 369.949ZM431.102 339.519L418.952 314.443L418.445 314.507L412.98 341.831L431.102 339.519Z" fill="black"/>
<path d="M507.943 317.65C507.455 315.082 506.472 312.883 504.995 311.054C503.539 309.203 501.707 307.805 499.499 306.861C497.29 305.917 494.856 305.466 492.195 305.508C488.597 305.565 485.428 306.521 482.69 308.374C479.972 310.206 477.864 312.869 476.365 316.364C474.887 319.837 474.186 323.99 474.263 328.823C474.341 333.719 475.174 337.89 476.762 341.336C478.371 344.76 480.563 347.334 483.337 349.057C486.112 350.78 489.287 351.613 492.864 351.556C495.482 351.515 497.87 351.008 500.026 350.037C502.204 349.044 504.002 347.642 505.421 345.831C506.861 343.998 507.817 341.821 508.288 339.301L520.2 339.175C519.649 343.4 518.188 347.246 515.816 350.712C513.443 354.157 510.282 356.901 506.333 358.944C502.404 360.987 497.928 362.048 492.904 362.128C487.135 362.22 481.962 360.961 477.384 358.351C472.807 355.719 469.201 351.89 466.565 346.864C463.93 341.838 462.558 335.887 462.448 329.011C462.339 322.135 463.532 316.143 466.027 311.035C468.522 305.906 472.015 301.964 476.507 299.21C480.999 296.455 486.108 295.032 491.835 294.941C496.667 294.864 501.067 295.71 505.035 297.478C509.002 299.225 512.28 301.802 514.868 305.211C517.456 308.619 519.118 312.703 519.854 317.461L507.943 317.65Z" fill="black"/>
<path d="M534.679 296.163L546.351 297.233L543.603 327.224L544.461 327.302L572.685 299.646L587.028 300.961L559.097 327.874L581.25 366.113L567.129 364.818L550.23 335.047L542.16 342.967L540.382 362.367L528.71 361.297L534.679 296.163Z" fill="black"/>
<path d="M626.307 307.702L650.081 313.47C654.84 314.625 658.677 316.509 661.592 319.123C664.533 321.72 666.475 324.821 667.419 328.424C668.389 332.011 668.377 335.853 667.383 339.95C666.384 344.068 664.632 347.498 662.125 350.242C659.619 352.986 656.454 354.837 652.629 355.793C648.804 356.749 644.501 356.647 639.722 355.487L627.493 352.52L622.274 374.028L610.884 371.265L626.307 307.702ZM640.482 345.714C643.255 346.387 645.68 346.46 647.758 345.935C649.856 345.414 651.561 344.393 652.872 342.871C654.204 341.353 655.151 339.436 655.714 337.119C656.572 333.581 656.205 330.534 654.612 327.978C653.045 325.407 650.182 323.617 646.023 322.608L635.378 320.025L629.775 343.116L640.482 345.714Z" fill="black"/>
<path d="M689.213 323.827L712.271 332.001C716.886 333.637 720.51 335.904 723.142 338.803C725.801 341.688 727.416 344.971 727.986 348.652C728.583 352.32 728.178 356.141 726.769 360.114C725.353 364.108 723.258 367.341 720.484 369.814C717.71 372.286 714.372 373.802 710.469 374.361C706.566 374.921 702.297 374.378 697.661 372.735L685.801 368.531L678.406 389.391L667.359 385.475L689.213 323.827ZM699.419 363.091C702.108 364.045 704.513 364.366 706.633 364.056C708.774 363.753 710.574 362.912 712.035 361.532C713.515 360.16 714.654 358.349 715.451 356.102C716.667 352.67 716.614 349.602 715.292 346.897C713.996 344.178 711.332 342.104 707.298 340.675L696.973 337.014L689.034 359.41L699.419 363.091Z" fill="black"/>
<path d="M715.982 402.479L764.956 353.373L778.042 359.617L770.692 428.578L759.363 423.174L761.435 406.222L739.211 395.62L727.339 407.897L715.982 402.479ZM762.623 396.315L765.982 368.654L765.52 368.434L746.135 388.449L762.623 396.315Z" fill="black"/>
<path d="M837.686 418.682C838.663 416.257 839.024 413.876 838.769 411.538C838.543 409.194 837.756 407.028 836.408 405.041C835.059 403.053 833.254 401.359 830.992 399.957C827.933 398.062 824.751 397.154 821.445 397.235C818.168 397.308 814.955 398.411 811.806 400.542C808.686 402.667 805.853 405.783 803.308 409.892C800.728 414.054 799.176 418.015 798.651 421.772C798.156 425.523 798.61 428.872 800.014 431.821C801.418 434.77 803.64 437.187 806.681 439.071C808.907 440.45 811.19 441.313 813.529 441.661C815.898 442.002 818.169 441.793 820.342 441.035C822.544 440.271 824.523 438.955 826.281 437.089L836.374 443.417C833.628 446.676 830.321 449.123 826.453 450.758C822.595 452.375 818.453 452.977 814.025 452.563C809.616 452.16 805.276 450.636 801.004 447.989C796.1 444.95 792.426 441.096 789.984 436.427C787.553 431.74 786.587 426.57 787.084 420.916C787.581 415.263 789.641 409.514 793.263 403.668C796.885 397.822 801.126 393.424 805.985 390.473C810.855 387.505 815.924 386.074 821.192 386.183C826.46 386.291 831.528 387.853 836.397 390.87C840.505 393.416 843.751 396.504 846.135 400.135C848.53 403.748 849.896 407.688 850.233 411.954C850.57 416.221 849.763 420.555 847.812 424.957L837.686 418.682Z" fill="black"/>
<path d="M871.636 414.82L880.936 421.954L862.604 445.849L863.289 446.374L901.917 438.05L913.345 446.817L875.361 454.669L873.685 498.829L862.435 490.198L864.033 456.002L852.982 458.392L841.124 473.849L831.824 466.715L871.636 414.82Z" fill="black"/>
</svg>
